<svg width="122" height="46" viewBox="0 0 122 46" fill="none" xmlns="http://www.w3.org/2000/svg">
<path d="M10.1018 11.0039L6.73789 12.7906L6.62643 12.8513V16.2007L6.84428 16.3127L10.1018 18.0434L10.2132 18.104L13.4657 16.3733V12.7859L10.1322 10.9993L10.1018 11.0039Z" fill="#703EFF"/>
<path d="M16.8346 3.85721V7.43057L13.4707 5.6299L10.1322 3.85721L6.73789 2.05187L6.62644 2.11252V1.99123L3.37401 0.260529L0 2.05187L3.36895 3.85721L6.62137 5.58791L6.73282 5.64389L10.0967 7.43057L13.4555 9.21725L16.8194 11.0039V14.5866V18.16L13.5771 19.8953L13.4656 19.9513L10.1322 21.738L6.73789 19.9513L6.62644 20.0073V19.8907L3.37401 18.16V7.43057L0 5.6299V9.20325V12.674L0.111454 12.7206L0 12.7953V16.3686V19.942L3.36388 21.7287L6.62644 23.45L6.73789 23.5107L6.62644 23.5713L3.37401 25.316L0 27.1074V30.6807V34.2541L0.111454 34.3147L0 34.3847V37.8461V41.4195V44.9928L3.36388 43.2061V36.0454L6.6163 37.7761L6.72776 37.8321L10.0916 39.6188L13.4504 41.4055L16.8143 43.1921L20.1731 44.9788V27.1074L16.9207 25.3767L16.8093 25.4326V25.316L13.4454 23.5293L16.8093 21.7427V21.626L16.9207 21.682L20.1731 19.9513V2.04721L16.8143 0.260529L16.8346 3.85721ZM16.8346 28.9174V32.4907V36.0454V39.6188L13.4707 37.8321L10.1322 36.0454L6.73789 34.2681L6.62644 34.3287V34.2121L6.73789 34.2681L10.1018 32.4814L13.4606 30.6947L16.8245 28.908L16.8346 28.9174ZM13.4606 27.126L13.572 27.182L13.4606 27.2426L10.2132 28.9547L10.1018 29.0153L6.84428 30.746L6.62644 30.858L3.47533 32.5327L3.36895 32.5934V28.894L6.62644 27.182V27.0654L6.73789 27.1214L10.1018 25.316L13.4606 27.126Z" fill="#703EFF"/>
<path d="M28.3623 23.1056L38.3914 0.595318H42.013L52.0421 23.1056H47.6544L47.5499 22.9133C46.2499 20.177 45.0078 17.4407 43.8238 14.7044C42.6631 11.9467 41.4559 9.189 40.2022 6.43133C39.2736 8.59044 38.345 10.7389 37.4164 12.8766C36.4877 14.993 35.5243 17.12 34.526 19.2577H44.3462L46.0525 23.1056H28.3623Z" fill="white"/>
<path d="M57.7948 0.595318L63.9585 8.57975L67.197 4.41117H64.4808L61.4164 0.595318H75.2064L66.5006 11.8505L75.2064 23.1056H70.157L63.9585 15.0892L60.7547 19.2577H63.7495L66.605 23.1056H52.7454L61.4512 11.8505L52.7454 0.595318H57.7948Z" fill="#703EFF"/>
<path d="M88.9629 23.4263C87.1521 23.4263 85.469 23.1056 83.9136 22.4643C82.3581 21.823 81.0116 20.9679 79.8741 19.899C78.7365 18.8302 77.8427 17.601 77.1927 16.2115C76.5659 14.8219 76.2524 13.3683 76.2524 11.8505C76.2524 10.3327 76.5659 8.87903 77.1927 7.48951C77.8427 6.0786 78.7365 4.83872 79.8741 3.76985C81.0116 2.70098 82.3581 1.85658 83.9136 1.23664C85.469 0.595318 87.1521 0.274658 88.9629 0.274658C90.7737 0.274658 92.4569 0.595318 94.0123 1.23664C95.5677 1.85658 96.9142 2.70098 98.0518 3.76985C99.1894 4.83872 100.072 6.0786 100.698 7.48951C101.348 8.87903 101.673 10.3327 101.673 11.8505C101.673 13.3683 101.348 14.8219 100.698 16.2115C100.072 17.601 99.1894 18.8302 98.0518 19.899C96.9142 20.9679 95.5677 21.823 94.0123 22.4643C92.4569 23.1056 90.7737 23.4263 88.9629 23.4263ZM88.9629 4.15464C87.7557 4.15464 86.6414 4.36842 85.6199 4.79596C84.5984 5.20213 83.7046 5.75794 82.9385 6.46339C82.1956 7.16885 81.6036 7.99187 81.1625 8.93248C80.7446 9.8517 80.5357 10.8244 80.5357 11.8505C80.5357 12.8552 80.7446 13.8279 81.1625 14.7685C81.6036 15.6877 82.1956 16.5001 82.9385 17.2055C83.7046 17.911 84.5984 18.4775 85.6199 18.905C86.6646 19.3326 87.7789 19.5463 88.9629 19.5463C90.1701 19.5463 91.2845 19.3432 92.306 18.9371C93.3275 18.5095 94.2096 17.943 94.9525 17.2376C95.7187 16.5321 96.3106 15.7198 96.7285 14.8006C97.1696 13.86 97.3902 12.8766 97.3902 11.8505C97.3902 10.8244 97.1812 9.8517 96.7634 8.93248C96.3455 7.99187 95.7535 7.16885 94.9874 6.46339C94.2445 5.75794 93.3507 5.20213 92.306 4.79596C91.2845 4.36842 90.1701 4.15464 88.9629 4.15464ZM89.1022 13.6782C88.5218 13.6782 88.0227 13.4965 87.6048 13.1331C87.2102 12.7697 87.0128 12.3422 87.0128 11.8505C87.0128 11.3588 87.2102 10.9313 87.6048 10.5678C87.9995 10.1831 88.4986 9.99066 89.1022 9.99066C89.7058 9.99066 90.1934 10.1831 90.5648 10.5678C90.9595 10.9313 91.1568 11.3588 91.1568 11.8505C91.1568 12.3422 90.9595 12.7697 90.5648 13.1331C90.1934 13.4965 89.7058 13.6782 89.1022 13.6782Z" fill="white"/>
<path d="M120.88 19.2577V23.1056H104.443V0.595318H108.517V19.2577H120.88Z" fill="white"/>
<path d="M28.5024 30.3902V27.4252H42.1941V30.3902H36.9447V44.9165H33.7788V30.3902H28.5024Z" fill="white"/>
<path d="M51.2276 45.1656C49.8205 45.1656 48.5127 44.9165 47.304 44.4181C46.0954 43.9198 45.0491 43.2554 44.1652 42.4248C43.2813 41.5943 42.5868 40.6392 42.0817 39.5594C41.5946 38.4797 41.3511 37.3502 41.3511 36.1708C41.3511 34.9915 41.5946 33.8619 42.0817 32.7822C42.5868 31.6859 43.2813 30.7225 44.1652 29.8919C45.0491 29.0614 46.0954 28.4052 47.304 27.9235C48.5127 27.4252 49.8205 27.176 51.2276 27.176C52.6346 27.176 53.9425 27.4252 55.1511 27.9235C56.3597 28.4052 57.406 29.0614 58.2899 29.8919C59.1738 30.7225 59.8593 31.6859 60.3464 32.7822C60.8515 33.8619 61.104 34.9915 61.104 36.1708C61.104 37.3502 60.8515 38.4797 60.3464 39.5594C59.8593 40.6392 59.1738 41.5943 58.2899 42.4248C57.406 43.2554 56.3597 43.9198 55.1511 44.4181C53.9425 44.9165 52.6346 45.1656 51.2276 45.1656ZM51.2276 30.1909C50.2895 30.1909 49.4236 30.357 48.6299 30.6892C47.8362 31.0048 47.1417 31.4367 46.5464 31.9849C45.9691 32.533 45.5091 33.1726 45.1664 33.9034C44.8417 34.6177 44.6793 35.3735 44.6793 36.1708C44.6793 36.9515 44.8417 37.7073 45.1664 38.4382C45.5091 39.1525 45.9691 39.7837 46.5464 40.3319C47.1417 40.88 47.8362 41.3202 48.6299 41.6524C49.4417 41.9846 50.3076 42.1507 51.2276 42.1507C52.1656 42.1507 53.0315 41.9929 53.8252 41.6773C54.6189 41.3451 55.3044 40.9049 55.8817 40.3568C56.477 39.8086 56.937 39.1774 57.2617 38.4631C57.6044 37.7323 57.7758 36.9681 57.7758 36.1708C57.7758 35.3735 57.6134 34.6177 57.2887 33.9034C56.964 33.1726 56.504 32.533 55.9087 31.9849C55.3315 31.4367 54.637 31.0048 53.8252 30.6892C53.0315 30.357 52.1656 30.1909 51.2276 30.1909ZM51.3358 37.5911C50.8848 37.5911 50.497 37.4499 50.1723 37.1675C49.8656 36.8851 49.7123 36.5529 49.7123 36.1708C49.7123 35.7888 49.8656 35.4566 50.1723 35.1742C50.4789 34.8752 50.8668 34.7257 51.3358 34.7257C51.8048 34.7257 52.1836 34.8752 52.4723 35.1742C52.7789 35.4566 52.9323 35.7888 52.9323 36.1708C52.9323 36.5529 52.7789 36.8851 52.4723 37.1675C52.1836 37.4499 51.8048 37.5911 51.3358 37.5911Z" fill="white"/>
<path d="M60.5026 27.4501H63.9391L69.7026 40.3817L71.9485 35.3486L68.4308 27.4252H78.9026L75.412 35.3237L77.6308 40.3817L83.3944 27.4252H86.8308L79.0649 44.9165H76.2238L73.6802 39.1857L71.1097 44.9165H68.2955L60.5026 27.4501ZM73.2202 30.4152L73.6802 31.4367L74.1402 30.4152H73.2202Z" fill="white"/>
<path d="M88.7294 44.9165V27.4252H101.258C102.178 27.4252 103.016 27.5747 103.774 27.8737C104.532 28.1727 105.181 28.5796 105.722 29.0946C106.263 29.5929 106.678 30.1826 106.967 30.8636C107.274 31.5281 107.427 32.2423 107.427 33.0065C107.427 33.5546 107.328 34.0862 107.129 34.6011C106.931 35.116 106.66 35.5977 106.318 36.0462C105.993 36.4781 105.596 36.8768 105.127 37.2422C104.658 37.5911 104.153 37.8901 103.612 38.1392C104.261 39.2189 104.92 40.2903 105.587 41.3534C106.254 42.4165 106.913 43.4879 107.562 44.5676L107.752 44.9165H104.099L104.018 44.7919C103.098 43.3135 102.187 41.8434 101.285 40.3817C100.401 38.9199 99.4988 37.4499 98.5788 35.9715L98.3623 35.6476H101.718C102.024 35.6144 102.331 35.5064 102.638 35.3237C102.944 35.1409 103.215 34.925 103.449 34.6758C103.702 34.4267 103.9 34.1609 104.045 33.8785C104.189 33.5795 104.261 33.2888 104.261 33.0065C104.261 32.2257 103.991 31.5945 103.449 31.1128C102.908 30.6311 102.178 30.3902 101.258 30.3902H91.8953V33.6294H94.9259L95.007 33.7539C95.2415 34.1858 95.4851 34.6094 95.7376 35.0247C96.0082 35.4399 96.2698 35.8635 96.5223 36.2954L96.7388 36.6193H91.8953V41.9265H100.013L101.853 44.9165H88.7294Z" fill="white"/>
<path d="M109.11 32.533C109.11 31.9018 109.236 31.2872 109.489 30.6892C109.742 30.0746 110.093 29.5265 110.544 29.0448C111.013 28.563 111.573 28.1727 112.222 27.8737C112.871 27.5747 113.593 27.4252 114.387 27.4252H120.827V30.3902H114.387C114.08 30.3902 113.791 30.4567 113.521 30.5896C113.268 30.7058 113.043 30.8636 112.844 31.063C112.664 31.2623 112.52 31.4949 112.411 31.7606C112.321 32.0098 112.276 32.2673 112.276 32.533C112.276 32.9649 112.339 33.3221 112.465 33.6044C112.61 33.8702 112.799 34.0779 113.034 34.2274C113.286 34.3768 113.575 34.4848 113.9 34.5513C114.224 34.6011 114.585 34.6343 114.982 34.6509C115.234 34.6675 115.496 34.6758 115.767 34.6758C116.055 34.6758 116.335 34.6758 116.605 34.6758C117.399 34.6758 118.121 34.8253 118.77 35.1243C119.42 35.4233 119.97 35.822 120.421 36.3203C120.89 36.802 121.251 37.3502 121.503 37.9648C121.756 38.5628 121.882 39.1691 121.882 39.7837C121.882 40.4149 121.756 41.0378 121.503 41.6524C121.269 42.267 120.917 42.8152 120.448 43.2969C119.997 43.7786 119.447 44.169 118.797 44.468C118.148 44.767 117.417 44.9165 116.605 44.9165H109.651V41.9265H116.605C116.912 41.9265 117.192 41.8684 117.444 41.7521C117.715 41.6358 117.94 41.478 118.121 41.2787C118.319 41.0793 118.464 40.8551 118.554 40.6059C118.662 40.3402 118.716 40.0661 118.716 39.7837C118.716 39.0528 118.545 38.5545 118.202 38.2887C117.877 38.0229 117.372 37.8485 116.687 37.7655C116.47 37.7323 116.245 37.7156 116.01 37.7156C115.776 37.7156 115.532 37.7073 115.28 37.6907C114.774 37.6741 114.251 37.6326 113.71 37.5661C113.169 37.4831 112.637 37.3336 112.114 37.1176C111.609 36.8851 111.131 36.5612 110.68 36.1459C110.229 35.714 109.841 35.1326 109.516 34.4018C109.245 33.837 109.11 33.2141 109.11 32.533Z" fill="white"/>
</svg>
