<svg width="32" height="32" viewBox="0 0 32 32" fill="none" xmlns="http://www.w3.org/2000/svg">
<path d="M3 9H29C29.5304 9 30.0391 8.78929 30.4142 8.41421C30.7893 8.03914 31 7.53043 31 7C31 6.46957 30.7893 5.96086 30.4142 5.58579C30.0391 5.21071 29.5304 5 29 5H3C2.46957 5 1.96086 5.21071 1.58579 5.58579C1.21071 5.96086 1 6.46957 1 7C1 7.53043 1.21071 8.03914 1.58579 8.41421C1.96086 8.78929 2.46957 9 3 9V9ZM29 14H3C2.46957 14 1.96086 14.2107 1.58579 14.5858C1.21071 14.9609 1 15.4696 1 16C1 16.5304 1.21071 17.0391 1.58579 17.4142C1.96086 17.7893 2.46957 18 3 18H29C29.5304 18 30.0391 17.7893 30.4142 17.4142C30.7893 17.0391 31 16.5304 31 16C31 15.4696 30.7893 14.9609 30.4142 14.5858C30.0391 14.2107 29.5304 14 29 14ZM29 23H3C2.46957 23 1.96086 23.2107 1.58579 23.5858C1.21071 23.9609 1 24.4696 1 25C1 25.5304 1.21071 26.0391 1.58579 26.4142C1.96086 26.7893 2.46957 27 3 27H29C29.5304 27 30.0391 26.7893 30.4142 26.4142C30.7893 26.0391 31 25.5304 31 25C31 24.4696 30.7893 23.9609 30.4142 23.5858C30.0391 23.2107 29.5304 23 29 23Z" fill="white"/>
</svg>
