<svg width="24" height="24" viewBox="0 0 24 24" fill="none" xmlns="http://www.w3.org/2000/svg">
<path d="M20.5867 5.89464C17.7929 3.80424 15.1164 3.8628 15.1164 3.8628L14.8428 4.17528C18.1642 5.17176 19.7076 6.63696 19.7076 6.63696C14.9558 4.02072 8.90305 4.03944 3.96049 6.63696C3.96049 6.63696 5.56249 5.09352 9.07921 4.09704L8.88385 3.86256C8.88385 3.86256 6.22681 3.804 3.41353 5.8944C3.41353 5.8944 0.60025 10.9546 0.60025 17.1869C0.60025 17.1869 2.24137 20.0002 6.55921 20.137C6.55921 20.137 7.28209 19.2773 7.86817 18.535C5.38681 17.7926 4.44913 16.2492 4.44913 16.2492C6.00793 17.2246 7.58425 17.8351 9.54841 18.2225C12.7442 18.8803 16.7194 18.204 19.6882 16.2492C19.6882 16.2492 18.7114 17.8318 16.152 18.5546C16.7381 19.2775 17.4415 20.1175 17.4415 20.1175C21.7589 19.981 23.4 17.1677 23.4 17.1871C23.4 10.9548 20.5867 5.89464 20.5867 5.89464ZM8.35633 15.3703C7.26217 15.3703 6.36361 14.413 6.36361 13.2211C6.44353 10.367 10.2893 10.3759 10.3493 13.2211C10.349 14.413 9.46993 15.3703 8.35633 15.3703ZM15.4874 15.3703C14.3933 15.3703 13.4947 14.413 13.4947 13.2211C13.5826 10.3726 17.3803 10.3714 17.4804 13.2211C17.4802 14.413 16.601 15.3703 15.4874 15.3703Z" fill="white"/>
</svg>
