<svg width="24" height="24" viewBox="0 0 24 24" fill="none" xmlns="http://www.w3.org/2000/svg">
<circle cx="12" cy="12" r="11" fill="#BF4F2C" stroke="white" stroke-width="2"/>
<path fill-rule="evenodd" clip-rule="evenodd" d="M12 15.1818C10.243 15.1818 8.81818 13.757 8.81818 12C8.81818 10.243 10.243 8.81818 12 8.81818C13.757 8.81818 15.1818 10.243 15.1818 12C15.1818 13.757 13.757 15.1818 12 15.1818ZM18.6557 11.1225L17.3423 10.655C17.1775 10.5965 16.9958 10.4132 16.9382 10.2478L16.7307 9.74505C16.655 9.58723 16.6544 9.32886 16.7295 9.17073L17.326 7.91582C17.4011 7.75768 17.3671 7.52191 17.2503 7.39145L16.6085 6.74968C16.4781 6.63291 16.2423 6.59886 16.0842 6.67395L14.8293 7.27055C14.6711 7.34564 14.4128 7.345 14.255 7.26927L13.7522 7.06182C13.5868 7.00455 13.4035 6.82255 13.345 6.65773L12.8775 5.34427C12.819 5.17945 12.6281 5.03214 12.454 5.01686C12.454 5.01686 12.2606 5 12 5C11.7394 5 11.546 5.01686 11.546 5.01686C11.3716 5.03214 11.181 5.17945 11.1225 5.34427L10.655 6.65773C10.5965 6.82255 10.4132 7.00455 10.2478 7.06214L9.746 7.26927C9.58818 7.345 9.32982 7.34564 9.17168 7.27055L7.91582 6.67395C7.75768 6.59886 7.52191 6.63291 7.39145 6.74968L6.74968 7.39145C6.63291 7.52191 6.59886 7.75768 6.67395 7.91582L7.27055 9.17073C7.34564 9.32886 7.34532 9.58723 7.26927 9.74505L7.06182 10.2478C7.00455 10.4132 6.82255 10.5965 6.65773 10.655L5.34427 11.1225C5.17945 11.181 5.03214 11.3716 5.01686 11.546C5.01686 11.546 5 11.7394 5 12C5 12.2606 5.01686 12.4537 5.01686 12.4537C5.03214 12.6281 5.17945 12.8187 5.34427 12.8775L6.65836 13.345C6.82318 13.4035 7.00518 13.5868 7.06277 13.7522L7.27023 14.255C7.34595 14.4128 7.34659 14.6711 7.2715 14.8293L6.67491 16.0842C6.59982 16.2423 6.63386 16.4781 6.75064 16.6085L7.39241 17.2503C7.52286 17.3671 7.75864 17.4011 7.91677 17.326L9.17168 16.7295C9.32982 16.6544 9.58818 16.655 9.746 16.7307L10.2487 16.9382C10.4139 16.9955 10.5971 17.1775 10.656 17.3423L11.1234 18.6564C11.182 18.8212 11.3725 18.9685 11.5469 18.9835C11.5469 18.9835 11.7394 19 12 19C12.2606 19 12.454 18.9831 12.454 18.9831C12.6281 18.9679 12.819 18.8205 12.8775 18.6557L13.345 17.3416C13.4035 17.1768 13.5868 16.9948 13.7522 16.9372L14.255 16.7298C14.4128 16.654 14.6711 16.6534 14.8293 16.7285L16.0842 17.3251C16.2423 17.4002 16.4781 17.3661 16.6085 17.2494L17.2503 16.6076C17.3671 16.4771 17.4011 16.2414 17.326 16.0832L16.7295 14.8283C16.6544 14.6702 16.655 14.4118 16.7307 14.2543L16.9382 13.7513C16.9955 13.5861 17.1775 13.4029 17.3423 13.344L18.6564 12.8766C18.8212 12.818 18.9685 12.6275 18.9835 12.4531C18.9835 12.4531 19 12.2606 19 12C19 11.7394 18.9831 11.546 18.9831 11.546C18.9679 11.3716 18.8205 11.181 18.6557 11.1225Z" fill="white"/>
<path fill-rule="evenodd" clip-rule="evenodd" d="M12.0001 10.65C11.642 10.65 11.2986 10.7922 11.0455 11.0454C10.7923 11.2985 10.6501 11.6419 10.6501 12C10.6501 12.358 10.7923 12.7014 11.0455 12.9546C11.2986 13.2077 11.642 13.35 12.0001 13.35C12.3581 13.35 12.7015 13.2077 12.9546 12.9546C13.2078 12.7014 13.3501 12.358 13.3501 12C13.3501 11.6419 13.2078 11.2985 12.9546 11.0454C12.7015 10.7922 12.3581 10.65 12.0001 10.65Z" fill="white"/>
</svg>
