<svg width="24" height="24" viewBox="0 0 24 24" fill="none" xmlns="http://www.w3.org/2000/svg">
<circle cx="12" cy="12" r="12" fill="#703EFF"/>
<path d="M8.52781 17.3981C8.82974 17.8495 9.28263 18 9.73553 18C10.1884 18 10.6413 17.8495 10.9432 17.3981L17.7367 8.36922C18.1896 7.7673 18.0386 6.71393 17.4347 6.26249C16.8309 5.81105 15.7741 5.96153 15.3212 6.56345L9.73553 13.937L8.67877 12.5827C8.22588 11.9808 7.16912 11.8303 6.56526 12.2817C5.9614 12.7332 5.81044 13.7865 6.26333 14.3885L8.52781 17.3981Z" fill="white"/>
<path d="M12 24C18.6667 24 24 18.6667 24 12C24 5.33333 18.6667 0 12 0C5.33333 0 0 5.33333 0 12C0 18.6667 5.33333 24 12 24ZM12 2.66667C17.2 2.66667 21.3333 6.8 21.3333 12C21.3333 17.2 17.2 21.3333 12 21.3333C6.8 21.3333 2.66667 17.2 2.66667 12C2.66667 6.8 6.8 2.66667 12 2.66667Z" fill="white"/>
</svg>
