<svg width="413" height="576" viewBox="0 0 413 576" fill="none" xmlns="http://www.w3.org/2000/svg">
<path d="M141.353 290.885L135.013 287.727L128.642 290.885V297.228L135.013 300.439L141.353 297.228V290.885Z" fill="#2E354D"/>
<path d="M148.535 279.826L142.195 276.668L135.823 279.826V286.169L142.195 289.38L148.535 286.169V279.826Z" fill="#2E354D"/>
<path d="M148.535 301.944L142.195 298.786L135.823 301.944V308.287L142.195 311.498L148.535 308.287V301.944Z" fill="#2E354D"/>
<path d="M162.836 301.944L156.495 298.786L150.124 301.944V308.287L156.495 311.498L162.836 308.287V301.944Z" fill="#2E354D"/>
<path d="M127.053 290.885L120.712 287.727L114.341 290.885V297.228L120.712 300.439L127.053 297.228V290.885Z" fill="#2E354D"/>
<path d="M134.235 301.944L127.894 298.786L121.523 301.944V308.287L127.894 311.498L134.235 308.287V301.944Z" fill="#2E354D"/>
<path d="M177.136 301.944L170.796 298.786L164.425 301.944V308.287L170.796 311.498L177.136 308.287V301.944Z" fill="#2E354D"/>
<path d="M169.954 290.885L163.614 287.727L157.243 290.885V297.228L163.614 300.439L169.954 297.228V290.885Z" fill="#2E354D"/>
<path d="M162.836 279.826L156.495 276.668L150.124 279.826V286.169L156.495 289.38L162.836 286.169V279.826Z" fill="#2E354D"/>
<path d="M155.654 290.885L149.313 287.727L142.942 290.885V297.228L149.313 300.439L155.654 297.228V290.885Z" fill="#2E354D"/>
<path d="M112.752 290.885L106.411 287.727L100.04 290.885V297.228L106.411 300.439L112.752 297.228V290.885Z" fill="#2E354D"/>
<path d="M98.4514 290.885L92.1108 287.727L85.7397 290.885V297.228L92.1108 300.439L98.4514 297.228V290.885Z" fill="#2E354D"/>
<path d="M119.934 279.826L113.593 276.668L107.222 279.826V286.169L113.593 289.38L119.934 286.169V279.826Z" fill="#2E354D"/>
<path d="M105.633 279.826L99.2928 276.668L92.9218 279.826V286.169L99.2928 289.38L105.633 286.169V279.826Z" fill="#2E354D"/>
<path d="M91.3329 279.826L84.9924 276.668L78.6213 279.826V286.169L84.9924 289.38L91.3329 286.169V279.826Z" fill="#2E354D"/>
<path d="M112.752 268.767L106.411 265.609L100.04 268.767V275.11L106.411 278.321L112.752 275.11V268.767Z" fill="#2E354D"/>
<path d="M84.1508 268.767L77.8103 265.609L71.4392 268.767V275.11L77.8103 278.321L84.1508 275.11V268.767Z" fill="#2E354D"/>
<path d="M69.8503 268.767L63.5098 265.609L57.1387 268.767V275.11L63.5098 278.321L69.8503 275.11V268.767Z" fill="#2E354D"/>
<path d="M91.3329 257.708L84.9924 254.55L78.6213 257.708V264.051L84.9924 267.261L91.3329 264.051V257.708Z" fill="#2E354D"/>
<path d="M77.0324 257.708L70.6919 254.55L64.3208 257.708V264.051L70.6919 267.261L77.0324 264.051V257.708Z" fill="#2E354D"/>
<path d="M62.7319 257.708L56.3913 254.55L50.0203 257.708V264.051L56.3913 267.261L62.7319 264.051V257.708Z" fill="#2E354D"/>
<path d="M105.633 257.708L99.2928 254.55L92.9218 257.708V264.051L99.2928 267.261L105.633 264.051V257.708Z" fill="#2E354D"/>
<path d="M119.934 257.708L113.593 254.55L107.222 257.708V264.051L113.593 267.261L119.934 264.051V257.708Z" fill="#2E354D"/>
<path d="M84.1508 246.649L77.8103 243.491L71.4392 246.649V252.992L77.8103 256.202L84.1508 252.992V246.649Z" fill="#2E354D"/>
<path d="M69.8503 246.649L63.5098 243.491L57.1387 246.649V252.992L63.5098 256.202L69.8503 252.992V246.649Z" fill="#2E354D"/>
<path d="M49.2092 243.491L55.5497 246.649V252.992L49.2092 256.202L42.8381 252.992V246.649L49.2092 243.491Z" fill="#703EFF"/>
<path d="M98.4514 246.649L92.1108 243.491L85.7397 246.649V252.992L92.1108 256.202L98.4514 252.992V246.649Z" fill="#2E354D"/>
<path d="M112.752 246.649L106.411 243.491L100.04 246.649V252.992L106.411 256.202L112.752 252.992V246.649Z" fill="#2E354D"/>
<path d="M127.053 246.649L120.712 243.491L114.341 246.649V252.992L120.712 256.202L127.053 252.992V246.649Z" fill="#2E354D"/>
<path d="M62.7319 235.59L56.3913 232.432L50.0203 235.59V241.933L56.3913 245.143L62.7319 241.933V235.59Z" fill="#2E354D"/>
<path d="M77.0324 235.59L70.6919 232.432L64.3208 235.59V241.933L70.6919 245.143L77.0324 241.933V235.59Z" fill="#2E354D"/>
<path d="M91.3329 235.59L84.9924 232.432L78.6213 235.59V241.933L84.9924 245.143L91.3329 241.933V235.59Z" fill="#2E354D"/>
<path d="M105.633 235.59L99.2928 232.432L92.9218 235.59V241.933L99.2928 245.143L105.633 241.933V235.59Z" fill="#2E354D"/>
<path d="M119.934 235.59L113.593 232.432L107.222 235.59V241.933L113.593 245.143L119.934 241.933V235.59Z" fill="#2E354D"/>
<path d="M134.235 235.59L127.894 232.432L121.523 235.59V241.933L127.894 245.143L134.235 241.933V235.59Z" fill="#2E354D"/>
<path d="M148.535 235.59L142.195 232.432L135.823 235.59V241.933L142.195 245.143L148.535 241.933V235.59Z" fill="#2E354D"/>
<path d="M162.836 235.59L156.495 232.432L150.124 235.59V241.933L156.495 245.143L162.836 241.933V235.59Z" fill="#2E354D"/>
<path d="M177.136 235.59L170.796 232.432L164.425 235.59V241.933L170.796 245.143L177.136 241.933V235.59Z" fill="#2E354D"/>
<path d="M191.437 235.59L185.096 232.432L178.725 235.59V241.933L185.096 245.143L191.437 241.933V235.59Z" fill="#2E354D"/>
<path d="M205.737 235.59L199.397 232.432L193.026 235.59V241.933L199.397 245.143L205.737 241.933V235.59Z" fill="#2E354D"/>
<path d="M69.8503 224.531L63.5098 221.373L57.1387 224.531V230.873L63.5098 234.084L69.8503 230.873V224.531Z" fill="#2E354D"/>
<path d="M55.5497 224.531L49.2092 221.373L42.8381 224.531V230.873L49.2092 234.084L55.5497 230.873V224.531Z" fill="#2E354D"/>
<path d="M84.1508 224.531L77.8103 221.373L71.4392 224.531V230.873L77.8103 234.084L84.1508 230.873V224.531Z" fill="#2E354D"/>
<path d="M98.4514 224.531L92.1108 221.373L85.7397 224.531V230.873L92.1108 234.084L98.4514 230.873V224.531Z" fill="#2E354D"/>
<path d="M127.053 224.531L120.712 221.373L114.341 224.531V230.873L120.712 234.084L127.053 230.873V224.531Z" fill="#2E354D"/>
<path d="M141.353 224.531L135.013 221.373L128.642 224.531V230.873L135.013 234.084L141.353 230.873V224.531Z" fill="#2E354D"/>
<path d="M155.654 224.531L149.313 221.373L142.942 224.531V230.873L149.313 234.084L155.654 230.873V224.531Z" fill="#2E354D"/>
<path d="M169.954 224.531L163.614 221.373L157.243 224.531V230.873L163.614 234.084L169.954 230.873V224.531Z" fill="#2E354D"/>
<path d="M184.255 224.531L177.914 221.373L171.543 224.531V230.873L177.914 234.084L184.255 230.873V224.531Z" fill="#2E354D"/>
<path d="M198.555 224.531L192.215 221.373L185.844 224.531V230.873L192.215 234.084L198.555 230.873V224.531Z" fill="#2E354D"/>
<path d="M62.7319 213.472L56.3913 210.314L50.0203 213.472V219.814L56.3913 223.025L62.7319 219.814V213.472Z" fill="#2E354D"/>
<path d="M48.4312 213.472L42.0907 210.314L35.7196 213.472V219.814L42.0907 223.025L48.4312 219.814V213.472Z" fill="#2E354D"/>
<path d="M119.934 213.472L113.593 210.314L107.222 213.472V219.814L113.593 223.025L119.934 219.814V213.472Z" fill="#2E354D"/>
<path d="M134.235 213.472L127.894 210.314L121.523 213.472V219.814L127.894 223.025L134.235 219.814V213.472Z" fill="#2E354D"/>
<path d="M148.535 213.472L142.195 210.314L135.823 213.472V219.814L142.195 223.025L148.535 219.814V213.472Z" fill="#2E354D"/>
<path d="M162.836 213.472L156.495 210.314L150.124 213.472V219.814L156.495 223.025L162.836 219.814V213.472Z" fill="#2E354D"/>
<path d="M177.136 213.472L170.796 210.314L164.425 213.472V219.814L170.796 223.025L177.136 219.814V213.472Z" fill="#2E354D"/>
<path d="M191.437 213.472L185.096 210.314L178.725 213.472V219.814L185.096 223.025L191.437 219.814V213.472Z" fill="#2E354D"/>
<path d="M198.555 335.122L192.215 331.964L185.844 335.122V341.464L192.215 344.675L198.555 341.464V335.122Z" fill="#2E354D"/>
<path d="M241.52 202.413L235.18 199.254L228.809 202.413V208.755L235.18 211.966L241.52 208.755V202.413Z" fill="#2E354D"/>
<path d="M227.22 202.413L220.879 199.254L214.508 202.413V208.755L220.879 211.966L227.22 208.755V202.413Z" fill="#2E354D"/>
<path d="M212.919 202.413L206.579 199.254L200.208 202.413V208.755L206.579 211.966L212.919 208.755V202.413Z" fill="#2E354D"/>
<path d="M198.619 202.413L192.278 199.254L185.907 202.413V208.755L192.278 211.966L198.619 208.755V202.413Z" fill="#2E354D"/>
<path d="M184.318 202.413L177.978 199.254L171.607 202.413V208.755L177.978 211.966L184.318 208.755V202.413Z" fill="#2E354D"/>
<path d="M170.018 202.413L163.677 199.254L157.306 202.413V208.755L163.677 211.966L170.018 208.755V202.413Z" fill="#2E354D"/>
<path d="M155.717 202.413L149.377 199.254L143.006 202.413V208.755L149.377 211.966L155.717 208.755V202.413Z" fill="#2E354D"/>
<path d="M141.417 202.413L135.076 199.254L128.705 202.413V208.755L135.076 211.966L141.417 208.755V202.413Z" fill="#2E354D"/>
<path d="M127.116 202.413L120.775 199.254L114.404 202.413V208.755L120.775 211.966L127.116 208.755V202.413Z" fill="#2E354D"/>
<path d="M112.815 202.413L106.475 199.254L100.104 202.413V208.755L106.475 211.966L112.815 208.755V202.413Z" fill="#2E354D"/>
<path d="M69.9138 202.413L63.5732 199.254L57.2021 202.413V208.755L63.5732 211.966L69.9138 208.755V202.413Z" fill="#2E354D"/>
<path d="M55.6132 202.413L49.2727 199.254L42.9016 202.413V208.755L49.2727 211.966L55.6132 208.755V202.413Z" fill="#2E354D"/>
<path d="M212.856 224.531L206.515 221.373L200.144 224.531V230.873L206.515 234.084L212.856 230.873V224.531Z" fill="#2E354D"/>
<path d="M227.156 224.531L220.816 221.373L214.445 224.531V230.873L220.816 234.084L227.156 230.873V224.531Z" fill="#2E354D"/>
<path d="M220.038 213.472L213.697 210.314L207.326 213.472V219.814L213.697 223.025L220.038 219.814V213.472Z" fill="#2E354D"/>
<path d="M205.737 213.472L199.397 210.314L193.026 213.472V219.814L199.397 223.025L205.737 219.814V213.472Z" fill="#2E354D"/>
<path d="M170.018 313.003L163.677 309.845L157.306 313.003V319.346L163.677 322.557L170.018 319.346V313.003Z" fill="#2E354D"/>
<path d="M177.136 324.063L170.796 320.904L164.425 324.063V330.405L170.796 333.616L177.136 330.405V324.063Z" fill="#2E354D"/>
<path d="M184.255 335.122L177.914 331.964L171.543 335.122V341.464L177.914 344.675L184.255 341.464V335.122Z" fill="#2E354D"/>
<path d="M212.856 335.122L206.515 331.964L200.144 335.122V341.464L206.515 344.675L212.856 341.464V335.122Z" fill="#2E354D"/>
<path d="M205.737 324.063L199.397 320.904L193.026 324.063V330.405L199.397 333.616L205.737 330.405V324.063Z" fill="#2E354D"/>
<path d="M220.038 324.063L213.697 320.904L207.326 324.063V330.405L213.697 333.616L220.038 330.405V324.063Z" fill="#2E354D"/>
<path d="M234.338 324.063L227.998 320.904L221.627 324.063V330.405L227.998 333.616L234.338 330.405V324.063Z" fill="#2E354D"/>
<path d="M248.639 324.063L242.298 320.904L235.927 324.063V330.405L242.298 333.616L248.639 330.405V324.063Z" fill="#2E354D"/>
<path d="M262.94 324.063L256.599 320.904L250.228 324.063V330.405L256.599 333.616L262.94 330.405V324.063Z" fill="#2E354D"/>
<path d="M227.156 335.122L220.816 331.964L214.445 335.122V341.464L220.816 344.675L227.156 341.464V335.122Z" fill="#2E354D"/>
<path d="M241.457 335.122L235.116 331.964L228.745 335.122V341.464L235.116 344.675L241.457 341.464V335.122Z" fill="#2E354D"/>
<path d="M255.758 335.122L249.417 331.964L243.046 335.122V341.464L249.417 344.675L255.758 341.464V335.122Z" fill="#2E354D"/>
<path d="M270.058 335.122L263.718 331.964L257.346 335.122V341.464L263.718 344.675L270.058 341.464V335.122Z" fill="#2E354D"/>
<path d="M284.359 335.122L278.018 331.964L271.647 335.122V341.464L278.018 344.675L284.359 341.464V335.122Z" fill="#2E354D"/>
<path d="M205.737 346.181L199.397 343.023L193.026 346.181V352.523L199.397 355.734L205.737 352.523V346.181Z" fill="#2E354D"/>
<path d="M220.038 346.181L213.697 343.023L207.326 346.181V352.523L213.697 355.734L220.038 352.523V346.181Z" fill="#2E354D"/>
<path d="M234.338 346.181L227.998 343.023L221.627 346.181V352.523L227.998 355.734L234.338 352.523V346.181Z" fill="#2E354D"/>
<path d="M277.24 346.181L270.9 343.023L264.529 346.181V352.523L270.9 355.734L277.24 352.523V346.181Z" fill="#2E354D"/>
<path d="M291.541 346.181L285.2 343.023L278.829 346.181V352.523L285.2 355.734L291.541 352.523V346.181Z" fill="#2E354D"/>
<path d="M198.619 357.24L192.278 354.082L185.907 357.24V363.583L192.278 366.793L198.619 363.583V357.24Z" fill="#2E354D"/>
<path d="M212.919 357.24L206.579 354.082L200.208 357.24V363.583L206.579 366.793L212.919 363.583V357.24Z" fill="#2E354D"/>
<path d="M227.22 357.24L220.879 354.082L214.508 357.24V363.583L220.879 366.793L227.22 363.583V357.24Z" fill="#2E354D"/>
<path d="M241.52 357.24L235.18 354.082L228.809 357.24V363.583L235.18 366.793L241.52 363.583V357.24Z" fill="#2E354D"/>
<path d="M270.122 357.24L263.781 354.082L257.41 357.24V363.583L263.781 366.793L270.122 363.583V357.24Z" fill="#2E354D"/>
<path d="M284.422 357.24L278.082 354.082L271.71 357.24V363.583L278.082 366.793L284.422 363.583V357.24Z" fill="#2E354D"/>
<path d="M298.723 357.24L292.382 354.082L286.011 357.24V363.583L292.382 366.793L298.723 363.583V357.24Z" fill="#2E354D"/>
<path d="M220.101 368.299L213.761 365.141L207.39 368.299V374.642L213.761 377.852L220.101 374.642V368.299Z" fill="#2E354D"/>
<path d="M234.402 368.299L228.062 365.141L221.69 368.299V374.642L228.062 377.852L234.402 374.642V368.299Z" fill="#2E354D"/>
<path d="M248.702 368.299L242.362 365.141L235.991 368.299V374.642L242.362 377.852L248.702 374.642V368.299Z" fill="#2E354D"/>
<path d="M263.003 368.299L256.663 365.141L250.292 368.299V374.642L256.663 377.852L263.003 374.642V368.299Z" fill="#2E354D"/>
<path d="M277.304 368.299L270.963 365.141L264.592 368.299V374.642L270.963 377.852L277.304 374.642V368.299Z" fill="#2E354D"/>
<path d="M291.604 368.299L285.264 365.141L278.893 368.299V374.642L285.264 377.852L291.604 374.642V368.299Z" fill="#2E354D"/>
<path d="M191.5 368.299L185.16 365.141L178.789 368.299V374.642L185.16 377.852L191.5 374.642V368.299Z" fill="#2E354D"/>
<path d="M305.905 368.299L299.564 365.141L293.193 368.299V374.642L299.564 377.852L305.905 374.642V368.299Z" fill="#2E354D"/>
<path d="M320.206 368.299L313.865 365.141L307.494 368.299V374.642L313.865 377.852L320.206 374.642V368.299Z" fill="#2E354D"/>
<path d="M198.682 379.358L192.342 376.2L185.971 379.358V385.701L192.342 388.912L198.682 385.701V379.358Z" fill="#2E354D"/>
<path d="M184.382 379.358L178.041 376.2L171.67 379.358V385.701L178.041 388.912L184.382 385.701V379.358Z" fill="#2E354D"/>
<path d="M212.983 379.358L206.642 376.2L200.271 379.358V385.701L206.642 388.912L212.983 385.701V379.358Z" fill="#2E354D"/>
<path d="M227.284 379.358L220.943 376.2L214.572 379.358V385.701L220.943 388.912L227.284 385.701V379.358Z" fill="#2E354D"/>
<path d="M241.584 379.358L235.244 376.2L228.873 379.358V385.701L235.244 388.912L241.584 385.701V379.358Z" fill="#2E354D"/>
<path d="M255.884 379.358L249.544 376.2L243.173 379.358V385.701L249.544 388.912L255.884 385.701V379.358Z" fill="#2E354D"/>
<path d="M270.185 379.358L263.845 376.2L257.474 379.358V385.701L263.845 388.912L270.185 385.701V379.358Z" fill="#2E354D"/>
<path d="M284.486 379.358L278.145 376.2L271.774 379.358V385.701L278.145 388.912L284.486 385.701V379.358Z" fill="#2E354D"/>
<path d="M298.786 379.358L292.446 376.2L286.075 379.358V385.701L292.446 388.912L298.786 385.701V379.358Z" fill="#2E354D"/>
<path d="M313.087 379.358L306.746 376.2L300.375 379.358V385.701L306.746 388.912L313.087 385.701V379.358Z" fill="#2E354D"/>
<path d="M327.387 379.358L321.047 376.2L314.676 379.358V385.701L321.047 388.912L327.387 385.701V379.358Z" fill="#2E354D"/>
<path d="M341.688 379.358L335.347 376.2L328.976 379.358V385.701L335.347 388.912L341.688 385.701V379.358Z" fill="#2E354D"/>
<path d="M191.5 390.417L185.16 387.259L178.789 390.417V396.76L185.16 399.971L191.5 396.76V390.417Z" fill="#2E354D"/>
<path d="M205.801 390.417L199.46 387.259L193.089 390.417V396.76L199.46 399.971L205.801 396.76V390.417Z" fill="#2E354D"/>
<path d="M220.101 390.417L213.761 387.259L207.39 390.417V396.76L213.761 399.971L220.101 396.76V390.417Z" fill="#2E354D"/>
<path d="M234.402 390.417L228.062 387.259L221.69 390.417V396.76L228.062 399.971L234.402 396.76V390.417Z" fill="#2E354D"/>
<path d="M248.702 390.417L242.362 387.259L235.991 390.417V396.76L242.362 399.971L248.702 396.76V390.417Z" fill="#2E354D"/>
<path d="M263.003 390.417L256.663 387.259L250.292 390.417V396.76L256.663 399.971L263.003 396.76V390.417Z" fill="#2E354D"/>
<path d="M277.304 390.417L270.963 387.259L264.592 390.417V396.76L270.963 399.971L277.304 396.76V390.417Z" fill="#2E354D"/>
<path d="M291.604 390.417L285.264 387.259L278.893 390.417V396.76L285.264 399.971L291.604 396.76V390.417Z" fill="#2E354D"/>
<path d="M305.905 390.417L299.564 387.259L293.193 390.417V396.76L299.564 399.971L305.905 396.76V390.417Z" fill="#2E354D"/>
<path d="M320.206 390.417L313.865 387.259L307.494 390.417V396.76L313.865 399.971L320.206 396.76V390.417Z" fill="#2E354D"/>
<path d="M334.506 390.417L328.166 387.259L321.794 390.417V396.76L328.166 399.971L334.506 396.76V390.417Z" fill="#2E354D"/>
<path d="M348.807 390.417L342.466 387.259L336.095 390.417V396.76L342.466 399.971L348.807 396.76V390.417Z" fill="#2E354D"/>
<path d="M363.107 390.417L356.767 387.259L350.396 390.417V396.76L356.767 399.971L363.107 396.76V390.417Z" fill="#2E354D"/>
<path d="M377.407 390.417L371.067 387.259L364.696 390.417V396.76L371.067 399.971L377.407 396.76V390.417Z" fill="#2E354D"/>
<path d="M198.682 401.476L192.342 398.318L185.971 401.476V407.819L192.342 411.03L198.682 407.819V401.476Z" fill="#2E354D"/>
<path d="M212.983 401.476L206.642 398.318L200.271 401.476V407.819L206.642 411.03L212.983 407.819V401.476Z" fill="#2E354D"/>
<path d="M227.284 401.476L220.943 398.318L214.572 401.476V407.819L220.943 411.03L227.284 407.819V401.476Z" fill="#2E354D"/>
<path d="M241.584 401.476L235.244 398.318L228.873 401.476V407.819L235.244 411.03L241.584 407.819V401.476Z" fill="#2E354D"/>
<path d="M255.884 401.476L249.544 398.318L243.173 401.476V407.819L249.544 411.03L255.884 407.819V401.476Z" fill="#2E354D"/>
<path d="M270.185 401.476L263.845 398.318L257.474 401.476V407.819L263.845 411.03L270.185 407.819V401.476Z" fill="#2E354D"/>
<path d="M284.486 401.476L278.145 398.318L271.774 401.476V407.819L278.145 411.03L284.486 407.819V401.476Z" fill="#2E354D"/>
<path d="M298.786 401.476L292.446 398.318L286.075 401.476V407.819L292.446 411.03L298.786 407.819V401.476Z" fill="#2E354D"/>
<path d="M313.087 401.476L306.746 398.318L300.375 401.476V407.819L306.746 411.03L313.087 407.819V401.476Z" fill="#2E354D"/>
<path d="M327.387 401.476L321.047 398.318L314.676 401.476V407.819L321.047 411.03L327.387 407.819V401.476Z" fill="#2E354D"/>
<path d="M341.688 401.476L335.347 398.318L328.976 401.476V407.819L335.347 411.03L341.688 407.819V401.476Z" fill="#2E354D"/>
<path d="M355.988 401.476L349.648 398.318L343.277 401.476V407.819L349.648 411.03L355.988 407.819V401.476Z" fill="#2E354D"/>
<path d="M370.289 401.476L363.948 398.318L357.577 401.476V407.819L363.948 411.03L370.289 407.819V401.476Z" fill="#2E354D"/>
<path d="M384.59 401.476L378.249 398.318L371.878 401.476V407.819L378.249 411.03L384.59 407.819V401.476Z" fill="#2E354D"/>
<path d="M205.801 412.535L199.46 409.377L193.089 412.535V418.878L199.46 422.089L205.801 418.878V412.535Z" fill="#2E354D"/>
<path d="M248.702 412.535L242.362 409.377L235.991 412.535V418.878L242.362 422.089L248.702 418.878V412.535Z" fill="#2E354D"/>
<path d="M263.003 412.535L256.663 409.377L250.292 412.535V418.878L256.663 422.089L263.003 418.878V412.535Z" fill="#2E354D"/>
<path d="M277.304 412.535L270.963 409.377L264.592 412.535V418.878L270.963 422.089L277.304 418.878V412.535Z" fill="#2E354D"/>
<path d="M291.604 412.535L285.264 409.377L278.893 412.535V418.878L285.264 422.089L291.604 418.878V412.535Z" fill="#2E354D"/>
<path d="M305.905 412.535L299.564 409.377L293.193 412.535V418.878L299.564 422.089L305.905 418.878V412.535Z" fill="#2E354D"/>
<path d="M334.506 412.535L328.166 409.377L321.794 412.535V418.878L328.166 422.089L334.506 418.878V412.535Z" fill="#2E354D"/>
<path d="M348.807 412.535L342.466 409.377L336.095 412.535V418.878L342.466 422.089L348.807 418.878V412.535Z" fill="#2E354D"/>
<path d="M363.107 412.535L356.767 409.377L350.396 412.535V418.878L356.767 422.089L363.107 418.878V412.535Z" fill="#2E354D"/>
<path d="M377.407 412.535L371.067 409.377L364.696 412.535V418.878L371.067 422.089L377.407 418.878V412.535Z" fill="#2E354D"/>
<path d="M391.708 412.535L385.368 409.377L378.997 412.535V418.878L385.368 422.089L391.708 418.878V412.535Z" fill="#2E354D"/>
<path d="M384.59 423.467L378.249 420.309L371.878 423.467V429.81L378.249 433.021L384.59 429.81V423.467Z" fill="#2E354D"/>
<path d="M370.289 423.467L363.948 420.309L357.577 423.467V429.81L363.948 433.021L370.289 429.81V423.467Z" fill="#2E354D"/>
<path d="M355.988 423.467L349.648 420.309L343.277 423.467V429.81L349.648 433.021L355.988 429.81V423.467Z" fill="#2E354D"/>
<path d="M341.688 423.467L335.347 420.309L328.976 423.467V429.81L335.347 433.021L341.688 429.81V423.467Z" fill="#2E354D"/>
<path d="M313.087 423.467L306.746 420.309L300.375 423.467V429.81L306.746 433.021L313.087 429.81V423.467Z" fill="#2E354D"/>
<path d="M298.786 423.467L292.446 420.309L286.075 423.467V429.81L292.446 433.021L298.786 429.81V423.467Z" fill="#2E354D"/>
<path d="M284.486 423.467L278.145 420.309L271.774 423.467V429.81L278.145 433.021L284.486 429.81V423.467Z" fill="#2E354D"/>
<path d="M270.185 423.467L263.845 420.309L257.474 423.467V429.81L263.845 433.021L270.185 429.81V423.467Z" fill="#2E354D"/>
<path d="M255.884 423.594L249.544 420.436L243.173 423.594V429.937L249.544 433.148L255.884 429.937V423.594Z" fill="#2E354D"/>
<path d="M227.284 423.467L220.943 420.309L214.572 423.467V429.81L220.943 433.021L227.284 429.81V423.467Z" fill="#2E354D"/>
<path d="M212.983 423.467L206.642 420.309L200.271 423.467V429.81L206.642 433.021L212.983 429.81V423.467Z" fill="#2E354D"/>
<path d="M363.107 434.336L356.767 431.178L350.396 434.336V440.678L356.767 443.889L363.107 440.678V434.336Z" fill="#2E354D"/>
<path d="M348.807 434.336L342.466 431.178L336.095 434.336V440.678L342.466 443.889L348.807 440.678V434.336Z" fill="#2E354D"/>
<path d="M334.506 434.336L328.166 431.178L321.794 434.336V440.678L328.166 443.889L334.506 440.678V434.336Z" fill="#2E354D"/>
<path d="M220.101 434.336L213.761 431.178L207.39 434.336V440.678L213.761 443.889L220.101 440.678V434.336Z" fill="#2E354D"/>
<path d="M234.402 434.336L228.062 431.178L221.69 434.336V440.678L228.062 443.889L234.402 440.678V434.336Z" fill="#2E354D"/>
<path d="M248.702 434.336L242.362 431.178L235.991 434.336V440.678L242.362 443.889L248.702 440.678V434.336Z" fill="#2E354D"/>
<path d="M263.003 434.336L256.663 431.178L250.292 434.336V440.678L256.663 443.889L263.003 440.678V434.336Z" fill="#2E354D"/>
<path d="M277.304 434.336L270.963 431.178L264.592 434.336V440.678L270.963 443.889L277.304 440.678V434.336Z" fill="#2E354D"/>
<path d="M291.604 434.336L285.264 431.178L278.893 434.336V440.678L285.264 443.889L291.604 440.678V434.336Z" fill="#2E354D"/>
<path d="M305.905 434.336L299.564 431.178L293.193 434.336V440.678L299.564 443.889L305.905 440.678V434.336Z" fill="#2E354D"/>
<path d="M355.988 445.204L349.648 442.046L343.277 445.204V451.547L349.648 454.758L355.988 451.547V445.204Z" fill="#2E354D"/>
<path d="M370.289 445.204L363.948 442.046L357.577 445.204V451.547L363.948 454.758L370.289 451.547V445.204Z" fill="#2E354D"/>
<path d="M341.688 445.204L335.347 442.046L328.976 445.204V451.547L335.347 454.758L341.688 451.547V445.204Z" fill="#2E354D"/>
<path d="M327.387 445.204L321.047 442.046L314.676 445.204V451.547L321.047 454.758L327.387 451.547V445.204Z" fill="#2E354D"/>
<path d="M313.087 445.204L306.746 442.046L300.375 445.204V451.547L306.746 454.758L313.087 451.547V445.204Z" fill="#2E354D"/>
<path d="M298.786 445.204L292.446 442.046L286.075 445.204V451.547L292.446 454.758L298.786 451.547V445.204Z" fill="#2E354D"/>
<path d="M284.486 445.204L278.145 442.046L271.774 445.204V451.547L278.145 454.758L284.486 451.547V445.204Z" fill="#2E354D"/>
<path d="M270.185 445.204L263.845 442.046L257.474 445.204V451.547L263.845 454.758L270.185 451.547V445.204Z" fill="#2E354D"/>
<path d="M255.884 445.204L249.544 442.046L243.173 445.204V451.547L249.544 454.758L255.884 451.547V445.204Z" fill="#2E354D"/>
<path d="M241.584 445.204L235.244 442.046L228.873 445.204V451.547L235.244 454.758L241.584 451.547V445.204Z" fill="#2E354D"/>
<path d="M227.284 445.204L220.943 442.046L214.572 445.204V451.547L220.943 454.758L227.284 451.547V445.204Z" fill="#2E354D"/>
<path d="M363.107 456.136L356.767 452.978L350.396 456.136V462.479L356.767 465.69L363.107 462.479V456.136Z" fill="#2E354D"/>
<path d="M348.807 456.136L342.466 452.978L336.095 456.136V462.479L342.466 465.69L348.807 462.479V456.136Z" fill="#2E354D"/>
<path d="M334.506 456.136L328.166 452.978L321.794 456.136V462.479L328.166 465.69L334.506 462.479V456.136Z" fill="#2E354D"/>
<path d="M320.206 456.136L313.865 452.978L307.494 456.136V462.479L313.865 465.69L320.206 462.479V456.136Z" fill="#2E354D"/>
<path d="M305.905 456.136L299.564 452.978L293.193 456.136V462.479L299.564 465.69L305.905 462.479V456.136Z" fill="#2E354D"/>
<path d="M291.604 456.136L285.264 452.978L278.893 456.136V462.479L285.264 465.69L291.604 462.479V456.136Z" fill="#2E354D"/>
<path d="M277.304 456.136L270.963 452.978L264.592 456.136V462.479L270.963 465.69L277.304 462.479V456.136Z" fill="#2E354D"/>
<path d="M263.003 456.136L256.663 452.978L250.292 456.136V462.479L256.663 465.69L263.003 462.479V456.136Z" fill="#2E354D"/>
<path d="M248.702 456.136L242.362 452.978L235.991 456.136V462.479L242.362 465.69L248.702 462.479V456.136Z" fill="#2E354D"/>
<path d="M241.584 467.195L235.244 464.037L228.873 467.195V473.538L235.244 476.749L241.584 473.538V467.195Z" fill="#2E354D"/>
<path d="M255.884 467.195L249.544 464.037L243.173 467.195V473.538L249.544 476.749L255.884 473.538V467.195Z" fill="#2E354D"/>
<path d="M270.185 467.195L263.845 464.037L257.474 467.195V473.538L263.845 476.749L270.185 473.538V467.195Z" fill="#2E354D"/>
<path d="M284.486 467.195L278.145 464.037L271.774 467.195V473.538L278.145 476.749L284.486 473.538V467.195Z" fill="#2E354D"/>
<path d="M298.786 467.195L292.446 464.037L286.075 467.195V473.538L292.446 476.749L298.786 473.538V467.195Z" fill="#2E354D"/>
<path d="M313.087 467.195L306.746 464.037L300.375 467.195V473.538L306.746 476.749L313.087 473.538V467.195Z" fill="#2E354D"/>
<path d="M327.387 467.195L321.047 464.037L314.676 467.195V473.538L321.047 476.749L327.387 473.538V467.195Z" fill="#2E354D"/>
<path d="M341.688 467.195L335.347 464.037L328.976 467.195V473.538L335.347 476.749L341.688 473.538V467.195Z" fill="#2E354D"/>
<path d="M355.988 467.195L349.648 464.037L343.277 467.195V473.538L349.648 476.749L355.988 473.538V467.195Z" fill="#2E354D"/>
<path d="M370.289 467.195L363.948 464.037L357.577 467.195V473.538L363.948 476.749L370.289 473.538V467.195Z" fill="#2E354D"/>
<path d="M248.702 477.937L242.362 474.778L235.991 477.937V484.279L242.362 487.49L248.702 484.279V477.937Z" fill="#2E354D"/>
<path d="M263.003 477.937L256.663 474.778L250.292 477.937V484.279L256.663 487.49L263.003 484.279V477.937Z" fill="#2E354D"/>
<path d="M291.604 477.937L285.264 474.778L278.893 477.937V484.279L285.264 487.49L291.604 484.279V477.937Z" fill="#2E354D"/>
<path d="M305.905 477.937L299.564 474.778L293.193 477.937V484.279L299.564 487.49L305.905 484.279V477.937Z" fill="#2E354D"/>
<path d="M320.206 477.937L313.865 474.778L307.494 477.937V484.279L313.865 487.49L320.206 484.279V477.937Z" fill="#2E354D"/>
<path d="M334.506 477.937L328.166 474.778L321.794 477.937V484.279L328.166 487.49L334.506 484.279V477.937Z" fill="#2E354D"/>
<path d="M255.884 488.996L249.544 485.838L243.173 488.996V495.338L249.544 498.549L255.884 495.338V488.996Z" fill="#2E354D"/>
<path d="M270.185 488.996L263.845 485.838L257.474 488.996V495.338L263.845 498.549L270.185 495.338V488.996Z" fill="#2E354D"/>
<path d="M298.786 488.996L292.446 485.838L286.075 488.996V495.338L292.446 498.549L298.786 495.338V488.996Z" fill="#2E354D"/>
<path d="M313.087 488.996L306.746 485.838L300.375 488.996V495.338L306.746 498.549L313.087 495.338V488.996Z" fill="#2E354D"/>
<path d="M327.387 488.996L321.047 485.838L314.676 488.996V495.338L321.047 498.549L327.387 495.338V488.996Z" fill="#2E354D"/>
<path d="M341.688 488.996L335.347 485.838L328.976 488.996V495.338L335.347 498.549L341.688 495.338V488.996Z" fill="#2E354D"/>
<path d="M263.003 500.055L256.663 496.897L250.292 500.055V506.397L256.663 509.608L263.003 506.397V500.055Z" fill="#2E354D"/>
<path d="M320.206 500.055L313.865 496.897L307.494 500.055V506.397L313.865 509.608L320.206 506.397V500.055Z" fill="#2E354D"/>
<path d="M334.506 500.055L328.166 496.897L321.794 500.055V506.397L328.166 509.608L334.506 506.397V500.055Z" fill="#2E354D"/>
<path d="M270.185 511.114L263.845 507.956L257.474 511.114V517.456L263.845 520.667L270.185 517.456V511.114Z" fill="#2E354D"/>
<path d="M298.786 511.114L292.446 507.956L286.075 511.114V517.456L292.446 520.667L298.786 517.456V511.114Z" fill="#2E354D"/>
<path d="M313.087 511.114L306.746 507.956L300.375 511.114V517.456L306.746 520.667L313.087 517.456V511.114Z" fill="#2E354D"/>
<path d="M327.387 511.114L321.047 507.956L314.676 511.114V517.456L321.047 520.667L327.387 517.456V511.114Z" fill="#2E354D"/>
<path d="M263.003 522.173L256.663 519.015L250.292 522.173V528.516L256.663 531.726L263.003 528.516V522.173Z" fill="#2E354D"/>
<path d="M291.604 522.173L285.264 519.015L278.893 522.173V528.516L285.264 531.726L291.604 528.516V522.173Z" fill="#2E354D"/>
<path d="M305.905 522.173L299.564 519.015L293.193 522.173V528.516L299.564 531.726L305.905 528.516V522.173Z" fill="#2E354D"/>
<path d="M320.206 522.173L313.865 519.015L307.494 522.173V528.516L313.865 531.726L320.206 528.516V522.173Z" fill="#2E354D"/>
<path d="M270.185 533.232L263.845 530.074L257.474 533.232V539.575L263.845 542.786L270.185 539.575V533.232Z" fill="#2E354D"/>
<path d="M284.486 533.232L278.145 530.074L271.774 533.232V539.575L278.145 542.786L284.486 539.575V533.232Z" fill="#2E354D"/>
<path d="M298.786 533.232L292.446 530.074L286.075 533.232V539.575L292.446 542.786L298.786 539.575V533.232Z" fill="#2E354D"/>
<path d="M313.087 533.232L306.746 530.074L300.375 533.232V539.575L306.746 542.786L313.087 539.575V533.232Z" fill="#2E354D"/>
<path d="M263.003 544.291L256.663 541.133L250.292 544.291V550.634L256.663 553.845L263.003 550.634V544.291Z" fill="#2E354D"/>
<path d="M277.304 544.291L270.963 541.133L264.592 544.291V550.634L270.963 553.845L277.304 550.634V544.291Z" fill="#2E354D"/>
<path d="M248.702 544.291L242.362 541.133L235.991 544.291V550.634L242.362 553.845L248.702 550.634V544.291Z" fill="#2E354D"/>
<path d="M291.604 544.291L285.264 541.133L278.893 544.291V550.634L285.264 553.845L291.604 550.634V544.291Z" fill="#2E354D"/>
<path d="M305.905 544.291L299.564 541.133L293.193 544.291V550.634L299.564 553.845L305.905 550.634V544.291Z" fill="#2E354D"/>
<path d="M255.884 555.35L249.544 552.192L243.173 555.35V561.693L249.544 564.904L255.884 561.693V555.35Z" fill="#2E354D"/>
<path d="M270.185 555.35L263.845 552.192L257.474 555.35V561.693L263.845 564.904L270.185 561.693V555.35Z" fill="#2E354D"/>
<path d="M284.486 555.35L278.145 552.192L271.774 555.35V561.693L278.145 564.904L284.486 561.693V555.35Z" fill="#2E354D"/>
<path d="M263.003 566.409L256.663 563.251L250.292 566.409V572.752L256.663 575.963L263.003 572.752V566.409Z" fill="#2E354D"/>
<path d="M277.304 566.409L270.963 563.251L264.592 566.409V572.752L270.963 575.963L277.304 572.752V566.409Z" fill="#2E354D"/>
<path d="M62.7319 191.353L56.3913 188.195L50.0203 191.353V197.696L56.3913 200.907L62.7319 197.696V191.353Z" fill="#2E354D"/>
<path d="M77.0324 146.926L70.6919 143.768L64.3208 146.926V153.269L70.6919 156.48L77.0324 153.269V146.926Z" fill="#2E354D"/>
<path d="M91.3329 146.926L84.9924 143.768L78.6213 146.926V153.269L84.9924 156.48L91.3329 153.269V146.926Z" fill="#2E354D"/>
<path d="M105.633 146.926L99.2928 143.768L92.9218 146.926V153.269L99.2928 156.48L105.633 153.269V146.926Z" fill="#2E354D"/>
<path d="M119.934 146.926L113.593 143.768L107.222 146.926V153.269L113.593 156.48L119.934 153.269V146.926Z" fill="#2E354D"/>
<path d="M148.535 146.926L142.195 143.768L135.823 146.926V153.269L142.195 156.48L148.535 153.269V146.926Z" fill="#2E354D"/>
<path d="M98.5148 158.176L92.1743 155.018L85.8032 158.176V164.519L92.1743 167.73L98.5148 164.519V158.176Z" fill="#2E354D"/>
<path d="M84.2145 158.176L77.874 155.018L71.5029 158.176V164.519L77.874 167.73L84.2145 164.519V158.176Z" fill="#2E354D"/>
<path d="M69.9138 158.176L63.5732 155.018L57.2021 158.176V164.519L63.5732 167.73L69.9138 164.519V158.176Z" fill="#2E354D"/>
<path d="M162.836 169.235L156.495 166.077L150.124 169.235V175.578L156.495 178.789L162.836 175.578V169.235Z" fill="#2E354D"/>
<path d="M148.535 169.235L142.195 166.077L135.823 169.235V175.578L142.195 178.789L148.535 175.578V169.235Z" fill="#2E354D"/>
<path d="M134.235 169.235L127.894 166.077L121.523 169.235V175.578L127.894 178.789L134.235 175.578V169.235Z" fill="#2E354D"/>
<path d="M119.934 169.235L113.593 166.077L107.222 169.235V175.578L113.593 178.789L119.934 175.578V169.235Z" fill="#2E354D"/>
<path d="M105.633 169.235L99.2928 166.077L92.9218 169.235V175.578L99.2928 178.789L105.633 175.578V169.235Z" fill="#2E354D"/>
<path d="M91.3329 169.235L84.9924 166.077L78.6213 169.235V175.578L84.9924 178.789L91.3329 175.578V169.235Z" fill="#2E354D"/>
<path d="M77.0324 169.235L70.6919 166.077L64.3208 169.235V175.578L70.6919 178.789L77.0324 175.578V169.235Z" fill="#2E354D"/>
<path d="M62.7319 169.235L56.3913 166.077L50.0203 169.235V175.578L56.3913 178.789L62.7319 175.578V169.235Z" fill="#2E354D"/>
<path d="M234.338 191.353L227.998 188.195L221.627 191.353V197.696L227.998 200.907L234.338 197.696V191.353Z" fill="#2E354D"/>
<path d="M141.417 180.294L135.076 177.136L128.705 180.294V186.637L135.076 189.848L141.417 186.637V180.294Z" fill="#2E354D"/>
<path d="M127.116 180.294L120.775 177.136L114.404 180.294V186.637L120.775 189.848L127.116 186.637V180.294Z" fill="#2E354D"/>
<path d="M112.815 180.294L106.475 177.136L100.104 180.294V186.637L106.475 189.848L112.815 186.637V180.294Z" fill="#2E354D"/>
<path d="M98.5148 180.294L92.1743 177.136L85.8032 180.294V186.637L92.1743 189.848L98.5148 186.637V180.294Z" fill="#2E354D"/>
<path d="M55.6132 180.294L49.2727 177.136L42.9016 180.294V186.637L49.2727 189.848L55.6132 186.637V180.294Z" fill="#2E354D"/>
<path d="M84.2145 180.294L77.874 177.136L71.5029 180.294V186.637L77.874 189.848L84.2145 186.637V180.294Z" fill="#2E354D"/>
<path d="M69.9138 180.294L63.5732 177.136L57.2021 180.294V186.637L63.5732 189.848L69.9138 186.637V180.294Z" fill="#2E354D"/>
<path d="M91.3329 191.353L84.9924 188.195L78.6213 191.353V197.696L84.9924 200.907L91.3329 197.696V191.353Z" fill="#2E354D"/>
<path d="M105.633 191.353L99.2928 188.195L92.9218 191.353V197.696L99.2928 200.907L105.633 197.696V191.353Z" fill="#2E354D"/>
<path d="M119.934 191.353L113.593 188.195L107.222 191.353V197.696L113.593 200.907L119.934 197.696V191.353Z" fill="#2E354D"/>
<path d="M134.235 191.353L127.894 188.195L121.523 191.353V197.696L127.894 200.907L134.235 197.696V191.353Z" fill="#2E354D"/>
<path d="M148.535 191.353L142.195 188.195L135.823 191.353V197.696L142.195 200.907L148.535 197.696V191.353Z" fill="#2E354D"/>
<path d="M162.836 191.353L156.495 188.195L150.124 191.353V197.696L156.495 200.907L162.836 197.696V191.353Z" fill="#2E354D"/>
<path d="M177.136 191.353L170.796 188.195L164.425 191.353V197.696L170.796 200.907L177.136 197.696V191.353Z" fill="#2E354D"/>
<path d="M191.437 191.353L185.096 188.195L178.725 191.353V197.696L185.096 200.907L191.437 197.696V191.353Z" fill="#2E354D"/>
<path d="M205.737 191.353L199.397 188.195L193.026 191.353V197.696L199.397 200.907L205.737 197.696V191.353Z" fill="#2E354D"/>
<path d="M220.038 191.353L213.697 188.195L207.326 191.353V197.696L213.697 200.907L220.038 197.696V191.353Z" fill="#2E354D"/>
<path d="M155.717 180.294L149.377 177.136L143.006 180.294V186.637L149.377 189.848L155.717 186.637V180.294Z" fill="#2E354D"/>
<path d="M170.018 180.294L163.677 177.136L157.306 180.294V186.637L163.677 189.848L170.018 186.637V180.294Z" fill="#2E354D"/>
<path d="M184.318 180.294L177.978 177.136L171.607 180.294V186.637L177.978 189.848L184.318 186.637V180.294Z" fill="#2E354D"/>
<path d="M198.619 180.294L192.278 177.136L185.907 180.294V186.637L192.278 189.848L198.619 186.637V180.294Z" fill="#2E354D"/>
<path d="M212.919 180.294L206.579 177.136L200.208 180.294V186.637L206.579 189.848L212.919 186.637V180.294Z" fill="#2E354D"/>
<path d="M227.22 180.294L220.879 177.136L214.508 180.294V186.637L220.879 189.848L227.22 186.637V180.294Z" fill="#2E354D"/>
<path d="M248.639 191.353L242.298 188.195L235.927 191.353V197.696L242.298 200.907L248.639 197.696V191.353Z" fill="#2E354D"/>
<path d="M241.52 180.294L235.18 177.136L228.809 180.294V186.637L235.18 189.848L241.52 186.637V180.294Z" fill="#2E354D"/>
<path d="M255.821 180.294L249.481 177.136L243.109 180.294V186.637L249.481 189.848L255.821 186.637V180.294Z" fill="#2E354D"/>
<path d="M262.94 191.353L256.599 188.195L250.228 191.353V197.696L256.599 200.907L262.94 197.696V191.353Z" fill="#2E354D"/>
<path d="M270.122 180.294L263.781 177.136L257.41 180.294V186.637L263.781 189.848L270.122 186.637V180.294Z" fill="#2E354D"/>
<path d="M284.422 180.294L278.082 177.136L271.71 180.294V186.637L278.082 189.848L284.422 186.637V180.294Z" fill="#2E354D"/>
<path d="M291.541 191.353L285.2 188.195L278.829 191.353V197.696L285.2 200.907L291.541 197.696V191.353Z" fill="#2E354D"/>
<path d="M262.94 169.235L256.599 166.077L250.228 169.235V175.578L256.599 178.789L262.94 175.578V169.235Z" fill="#2E354D"/>
<path d="M277.24 169.235L270.9 166.077L264.529 169.235V175.578L270.9 178.789L277.24 175.578V169.235Z" fill="#2E354D"/>
<path d="M191.437 169.235L185.096 166.077L178.725 169.235V175.578L185.096 178.789L191.437 175.578V169.235Z" fill="#2E354D"/>
<path d="M205.737 169.235L199.397 166.077L193.026 169.235V175.578L199.397 178.789L205.737 175.578V169.235Z" fill="#2E354D"/>
<path d="M220.038 169.235L213.697 166.077L207.326 169.235V175.578L213.697 178.789L220.038 175.578V169.235Z" fill="#2E354D"/>
<path d="M234.338 169.235L227.998 166.077L221.627 169.235V175.578L227.998 178.789L234.338 175.578V169.235Z" fill="#2E354D"/>
<path d="M248.639 169.235L242.298 166.077L235.927 169.235V175.578L242.298 178.789L248.639 175.578V169.235Z" fill="#2E354D"/>
<path d="M112.815 158.176L106.475 155.018L100.104 158.176V164.519L106.475 167.73L112.815 164.519V158.176Z" fill="#2E354D"/>
<path d="M127.116 158.176L120.775 155.018L114.404 158.176V164.519L120.775 167.73L127.116 164.519V158.176Z" fill="#2E354D"/>
<path d="M141.417 158.176L135.076 155.018L128.705 158.176V164.519L135.076 167.73L141.417 164.519V158.176Z" fill="#2E354D"/>
<path d="M155.717 158.176L149.377 155.018L143.006 158.176V164.519L149.377 167.73L155.717 164.519V158.176Z" fill="#2E354D"/>
<path d="M170.018 158.176L163.677 155.018L157.306 158.176V164.519L163.677 167.73L170.018 164.519V158.176Z" fill="#2E354D"/>
<path d="M184.318 158.176L177.978 155.018L171.607 158.176V164.519L177.978 167.73L184.318 164.519V158.176Z" fill="#2E354D"/>
<path d="M198.619 158.176L192.278 155.018L185.907 158.176V164.519L192.278 167.73L198.619 164.519V158.176Z" fill="#2E354D"/>
<path d="M212.919 158.176L206.579 155.018L200.208 158.176V164.519L206.579 167.73L212.919 164.519V158.176Z" fill="#2E354D"/>
<path d="M227.22 158.176L220.879 155.018L214.508 158.176V164.519L220.879 167.73L227.22 164.519V158.176Z" fill="#2E354D"/>
<path d="M241.52 158.176L235.18 155.018L228.809 158.176V164.519L235.18 167.73L241.52 164.519V158.176Z" fill="#2E354D"/>
<path d="M255.821 158.176L249.481 155.018L243.109 158.176V164.519L249.481 167.73L255.821 164.519V158.176Z" fill="#2E354D"/>
<path d="M270.122 158.176L263.781 155.018L257.41 158.176V164.519L263.781 167.73L270.122 164.519V158.176Z" fill="#2E354D"/>
<path d="M284.422 158.176L278.082 155.018L271.71 158.176V164.519L278.082 167.73L284.422 164.519V158.176Z" fill="#2E354D"/>
<path d="M298.723 158.176L292.382 155.018L286.011 158.176V164.519L292.382 167.73L298.723 164.519V158.176Z" fill="#2E354D"/>
<path d="M313.023 158.176L306.683 155.018L300.312 158.176V164.519L306.683 167.73L313.023 164.519V158.176Z" fill="#2E354D"/>
<path d="M320.142 169.235L313.801 166.077L307.43 169.235V175.578L313.801 178.789L320.142 175.578V169.235Z" fill="#2E354D"/>
<path d="M327.26 180.294L320.92 177.136L314.549 180.294V186.637L320.92 189.848L327.26 186.637V180.294Z" fill="#2E354D"/>
<path d="M305.841 146.926L299.501 143.768L293.13 146.926V153.269L299.501 156.48L305.841 153.269V146.926Z" fill="#2E354D"/>
<path d="M248.639 146.926L242.298 143.768L235.927 146.926V153.269L242.298 156.48L248.639 153.269V146.926Z" fill="#2E354D"/>
<path d="M262.94 146.926L256.599 143.768L250.228 146.926V153.269L256.599 156.48L262.94 153.269V146.926Z" fill="#2E354D"/>
<path d="M277.24 146.926L270.9 143.768L264.529 146.926V153.269L270.9 156.48L277.24 153.269V146.926Z" fill="#2E354D"/>
<path d="M291.541 146.926L285.2 143.768L278.829 146.926V153.269L285.2 156.48L291.541 153.269V146.926Z" fill="#2E354D"/>
<path d="M234.338 147.117L227.998 143.959L221.627 147.117V153.46L227.998 156.671L234.338 153.46V147.117Z" fill="#2E354D"/>
<path d="M220.038 146.926L213.697 143.768L207.326 146.926V153.269L213.697 156.48L220.038 153.269V146.926Z" fill="#2E354D"/>
<path d="M205.737 146.926L199.397 143.768L193.026 146.926V153.269L199.397 156.48L205.737 153.269V146.926Z" fill="#2E354D"/>
<path d="M191.437 146.926L185.096 143.768L178.725 146.926V153.269L185.096 156.48L191.437 153.269V146.926Z" fill="#2E354D"/>
<path d="M177.136 146.926L170.796 143.768L164.425 146.926V153.269L170.796 156.48L177.136 153.269V146.926Z" fill="#2E354D"/>
<path d="M69.9138 135.867L63.5732 132.709L57.2021 135.867V142.21L63.5732 145.421L69.9138 142.21V135.867Z" fill="#2E354D"/>
<path d="M84.2145 135.867L77.874 132.709L71.5029 135.867V142.21L77.874 145.421L84.2145 142.21V135.867Z" fill="#2E354D"/>
<path d="M98.5148 135.867L92.1743 132.709L85.8032 135.867V142.21L92.1743 145.421L98.5148 142.21V135.867Z" fill="#2E354D"/>
<path d="M112.815 135.867L106.475 132.709L100.104 135.867V142.21L106.475 145.421L112.815 142.21V135.867Z" fill="#2E354D"/>
<path d="M127.116 135.867L120.775 132.709L114.404 135.867V142.21L120.775 145.421L127.116 142.21V135.867Z" fill="#2E354D"/>
<path d="M141.417 135.867L135.076 132.709L128.705 135.867V142.21L135.076 145.421L141.417 142.21V135.867Z" fill="#2E354D"/>
<path d="M170.018 135.867L163.677 132.709L157.306 135.867V142.21L163.677 145.421L170.018 142.21V135.867Z" fill="#2E354D"/>
<path d="M184.318 135.867L177.978 132.709L171.607 135.867V142.21L177.978 145.421L184.318 142.21V135.867Z" fill="#2E354D"/>
<path d="M198.619 135.867L192.278 132.709L185.907 135.867V142.21L192.278 145.421L198.619 142.21V135.867Z" fill="#2E354D"/>
<path d="M212.919 135.867L206.579 132.709L200.208 135.867V142.21L206.579 145.421L212.919 142.21V135.867Z" fill="#2E354D"/>
<path d="M241.393 25.2764L235.053 22.1182L228.682 25.2764V31.619L235.053 34.8298L241.393 31.619V25.2764Z" fill="#2E354D"/>
<path d="M41.3127 47.3946L34.9722 44.2364L28.6011 47.3946V53.7372L34.9722 56.948L41.3127 53.7372V47.3946Z" fill="#2E354D"/>
<path d="M234.338 80.5718L227.998 77.4137L221.627 80.5718V86.9145L227.998 90.1253L234.338 86.9145V80.5718Z" fill="#2E354D"/>
<path d="M291.541 80.5718L285.2 77.4137L278.829 80.5718V86.9145L285.2 90.1253L291.541 86.9145V80.5718Z" fill="#2E354D"/>
<path d="M241.52 91.6309L235.18 88.4728L228.809 91.6309V97.9736L235.18 101.184L241.52 97.9736V91.6309Z" fill="#2E354D"/>
<path d="M212.919 91.6309L206.579 88.4728L200.208 91.6309V97.9736L206.579 101.184L212.919 97.9736V91.6309Z" fill="#2E354D"/>
<path d="M198.619 91.6309L192.278 88.4728L185.907 91.6309V97.9736L192.278 101.184L198.619 97.9736V91.6309Z" fill="#2E354D"/>
<path d="M141.417 91.6309L135.076 88.4728L128.705 91.6309V97.9736L135.076 101.184L141.417 97.9736V91.6309Z" fill="#2E354D"/>
<path d="M84.2145 91.6309L77.874 88.4728L71.5029 91.6309V97.9736L77.874 101.184L84.2145 97.9736V91.6309Z" fill="#2E354D"/>
<path d="M191.437 102.69L185.096 99.5319L178.725 102.69V109.033L185.096 112.243L191.437 109.033V102.69Z" fill="#2E354D"/>
<path d="M205.737 102.69L199.397 99.5319L193.026 102.69V109.033L199.397 112.243L205.737 109.033V102.69Z" fill="#2E354D"/>
<path d="M220.038 102.69L213.697 99.5319L207.326 102.69V109.033L213.697 112.243L220.038 109.033V102.69Z" fill="#2E354D"/>
<path d="M234.338 102.69L227.998 99.5319L221.627 102.69V109.033L227.998 112.243L234.338 109.033V102.69Z" fill="#2E354D"/>
<path d="M248.639 102.69L242.298 99.5319L235.927 102.69V109.033L242.298 112.243L248.639 109.033V102.69Z" fill="#2E354D"/>
<path d="M277.24 102.69L270.9 99.5319L264.529 102.69V109.033L270.9 112.243L277.24 109.033V102.69Z" fill="#2E354D"/>
<path d="M262.94 102.69L256.599 99.5319L250.228 102.69V109.033L256.599 112.243L262.94 109.033V102.69Z" fill="#2E354D"/>
<path d="M155.717 113.749L149.377 110.591L143.006 113.749V120.092L149.377 123.303L155.717 120.092V113.749Z" fill="#2E354D"/>
<path d="M170.018 113.749L163.677 110.591L157.306 113.749V120.092L163.677 123.303L170.018 120.092V113.749Z" fill="#2E354D"/>
<path d="M184.318 113.749L177.978 110.591L171.607 113.749V120.092L177.978 123.303L184.318 120.092V113.749Z" fill="#2E354D"/>
<path d="M198.619 113.749L192.278 110.591L185.907 113.749V120.092L192.278 123.303L198.619 120.092V113.749Z" fill="#2E354D"/>
<path d="M284.422 113.749L278.082 110.591L271.71 113.749V120.092L278.082 123.303L284.422 120.092V113.749Z" fill="#2E354D"/>
<path d="M270.122 113.749L263.781 110.591L257.41 113.749V120.092L263.781 123.303L270.122 120.092V113.749Z" fill="#2E354D"/>
<path d="M255.821 113.749L249.481 110.591L243.109 113.749V120.092L249.481 123.303L255.821 120.092V113.749Z" fill="#2E354D"/>
<path d="M291.541 124.808L285.2 121.65L278.829 124.808V131.151L285.2 134.362L291.541 131.151V124.808Z" fill="#2E354D"/>
<path d="M277.24 124.808L270.9 121.65L264.529 124.808V131.151L270.9 134.362L277.24 131.151V124.808Z" fill="#2E354D"/>
<path d="M262.94 124.808L256.599 121.65L250.228 124.808V131.151L256.599 134.362L262.94 131.151V124.808Z" fill="#2E354D"/>
<path d="M134.235 124.808L127.894 121.65L121.523 124.808V131.151L127.894 134.362L134.235 131.151V124.808Z" fill="#2E354D"/>
<path d="M148.535 124.808L142.195 121.65L135.823 124.808V131.151L142.195 134.362L148.535 131.151V124.808Z" fill="#2E354D"/>
<path d="M162.836 124.808L156.495 121.65L150.124 124.808V131.151L156.495 134.362L162.836 131.151V124.808Z" fill="#2E354D"/>
<path d="M177.136 124.808L170.796 121.65L164.425 124.808V131.151L170.796 134.362L177.136 131.151V124.808Z" fill="#2E354D"/>
<path d="M191.437 124.808L185.096 121.65L178.725 124.808V131.151L185.096 134.362L191.437 131.151V124.808Z" fill="#2E354D"/>
<path d="M205.737 124.808L199.397 121.65L193.026 124.808V131.151L199.397 134.362L205.737 131.151V124.808Z" fill="#2E354D"/>
<path d="M255.821 135.867L249.481 132.709L243.109 135.867V142.21L249.481 145.421L255.821 142.21V135.867Z" fill="#2E354D"/>
<path d="M270.122 135.867L263.781 132.709L257.41 135.867V142.21L263.781 145.421L270.122 142.21V135.867Z" fill="#2E354D"/>
<path d="M284.422 135.867L278.082 132.709L271.71 135.867V142.21L278.082 145.421L284.422 142.21V135.867Z" fill="#2E354D"/>
<path d="M119.934 124.808L113.593 121.65L107.222 124.808V131.151L113.593 134.362L119.934 131.151V124.808Z" fill="#2E354D"/>
<path d="M105.633 124.808L99.2928 121.65L92.9218 124.808V131.151L99.2928 134.362L105.633 131.151V124.808Z" fill="#2E354D"/>
<path d="M91.3329 124.808L84.9924 121.65L78.6213 124.808V131.151L84.9924 134.362L91.3329 131.151V124.808Z" fill="#2E354D"/>
<path d="M77.0324 124.808L70.6919 121.65L64.3208 124.808V131.151L70.6919 134.362L77.0324 131.151V124.808Z" fill="#2E354D"/>
<path d="M141.417 113.749L135.076 110.591L128.705 113.749V120.092L135.076 123.303L141.417 120.092V113.749Z" fill="#2E354D"/>
<path d="M127.116 113.749L120.775 110.591L114.404 113.749V120.092L120.775 123.303L127.116 120.092V113.749Z" fill="#2E354D"/>
<path d="M112.815 113.749L106.475 110.591L100.104 113.749V120.092L106.475 123.303L112.815 120.092V113.749Z" fill="#2E354D"/>
<path d="M98.5148 113.749L92.1743 110.591L85.8032 113.749V120.092L92.1743 123.303L98.5148 120.092V113.749Z" fill="#2E354D"/>
<path d="M84.2145 113.749L77.874 110.591L71.5029 113.749V120.092L77.874 123.303L84.2145 120.092V113.749Z" fill="#2E354D"/>
<path d="M69.9138 113.749L63.5732 110.591L57.2021 113.749V120.092L63.5732 123.303L69.9138 120.092V113.749Z" fill="#2E354D"/>
<path d="M291.541 102.69L285.2 99.5319L278.829 102.69V109.033L285.2 112.243L291.541 109.033V102.69Z" fill="#2E354D"/>
<path d="M177.136 102.69L170.796 99.5319L164.425 102.69V109.033L170.796 112.243L177.136 109.033V102.69Z" fill="#2E354D"/>
<path d="M162.836 102.69L156.495 99.5319L150.124 102.69V109.033L156.495 112.243L162.836 109.033V102.69Z" fill="#2E354D"/>
<path d="M148.535 102.69L142.195 99.5319L135.823 102.69V109.033L142.195 112.243L148.535 109.033V102.69Z" fill="#2E354D"/>
<path d="M134.235 102.69L127.894 99.5319L121.523 102.69V109.033L127.894 112.243L134.235 109.033V102.69Z" fill="#2E354D"/>
<path d="M119.934 102.69L113.593 99.5319L107.222 102.69V109.033L113.593 112.243L119.934 109.033V102.69Z" fill="#2E354D"/>
<path d="M105.633 102.69L99.2928 99.5319L92.9218 102.69V109.033L99.2928 112.243L105.633 109.033V102.69Z" fill="#2E354D"/>
<path d="M91.3329 102.69L84.9924 99.5319L78.6213 102.69V109.033L84.9924 112.243L91.3329 109.033V102.69Z" fill="#2E354D"/>
<path d="M77.0324 102.69L70.6919 99.5319L64.3208 102.69V109.033L70.6919 112.243L77.0324 109.033V102.69Z" fill="#2E354D"/>
<path d="M62.7319 102.69L56.3913 99.5319L50.0203 102.69V109.033L56.3913 112.243L62.7319 109.033V102.69Z" fill="#2E354D"/>
<path d="M48.4312 102.69L42.0907 99.5319L35.7196 102.69V109.033L42.0907 112.243L48.4312 109.033V102.69Z" fill="#2E354D"/>
<path d="M34.1307 102.69L27.7901 99.5319L21.4191 102.69V109.033L27.7901 112.243L34.1307 109.033V102.69Z" fill="#2E354D"/>
<path d="M19.83 102.69L13.4895 99.5319L7.11841 102.69V109.033L13.4895 112.243L19.83 109.033V102.69Z" fill="#2E354D"/>
<path d="M27.0121 91.6309L20.6716 88.4728L14.3005 91.6309V97.9736L20.6716 101.184L27.0121 97.9736V91.6309Z" fill="#2E354D"/>
<path d="M12.7116 91.6309L6.37108 88.4728L0 91.6309V97.9736L6.37108 101.184L12.7116 97.9736V91.6309Z" fill="#2E354D"/>
<path d="M41.3127 91.6309L34.9722 88.4728L28.6011 91.6309V97.9736L34.9722 101.184L41.3127 97.9736V91.6309Z" fill="#2E354D"/>
<path d="M55.6132 91.6309L49.2727 88.4728L42.9016 91.6309V97.9736L49.2727 101.184L55.6132 97.9736V91.6309Z" fill="#2E354D"/>
<path d="M98.5148 91.6309L92.1743 88.4728L85.8032 91.6309V97.9736L92.1743 101.184L98.5148 97.9736V91.6309Z" fill="#2E354D"/>
<path d="M112.815 91.6309L106.475 88.4728L100.104 91.6309V97.9736L106.475 101.184L112.815 97.9736V91.6309Z" fill="#2E354D"/>
<path d="M127.116 91.6309L120.775 88.4728L114.404 91.6309V97.9736L120.775 101.184L127.116 97.9736V91.6309Z" fill="#2E354D"/>
<path d="M155.717 91.6309L149.377 88.4728L143.006 91.6309V97.9736L149.377 101.184L155.717 97.9736V91.6309Z" fill="#2E354D"/>
<path d="M184.318 91.6309L177.978 88.4728L171.607 91.6309V97.9736L177.978 101.184L184.318 97.9736V91.6309Z" fill="#2E354D"/>
<path d="M227.22 91.6309L220.879 88.4728L214.508 91.6309V97.9736L220.879 101.184L227.22 97.9736V91.6309Z" fill="#2E354D"/>
<path d="M270.122 91.6309L263.781 88.4728L257.41 91.6309V97.9736L263.781 101.184L270.122 97.9736V91.6309Z" fill="#2E354D"/>
<path d="M284.422 91.6309L278.082 88.4728L271.71 91.6309V97.9736L278.082 101.184L284.422 97.9736V91.6309Z" fill="#2E354D"/>
<path d="M298.723 91.6309L292.382 88.4728L286.011 91.6309V97.9736L292.382 101.184L298.723 97.9736V91.6309Z" fill="#2E354D"/>
<path d="M277.24 80.5718L270.9 77.4137L264.529 80.5718V86.9145L270.9 90.1253L277.24 86.9145V80.5718Z" fill="#2E354D"/>
<path d="M248.639 80.5718L242.298 77.4137L235.927 80.5718V86.9145L242.298 90.1253L248.639 86.9145V80.5718Z" fill="#2E354D"/>
<path d="M220.038 80.5718L213.697 77.4137L207.326 80.5718V86.9145L213.697 90.1253L220.038 86.9145V80.5718Z" fill="#2E354D"/>
<path d="M191.437 80.5718L185.096 77.4137L178.725 80.5718V86.9145L185.096 90.1253L191.437 86.9145V80.5718Z" fill="#2E354D"/>
<path d="M177.136 80.5718L170.796 77.4137L164.425 80.5718V86.9145L170.796 90.1253L177.136 86.9145V80.5718Z" fill="#2E354D"/>
<path d="M148.535 80.5718L142.195 77.4137L135.823 80.5718V86.9145L142.195 90.1253L148.535 86.9145V80.5718Z" fill="#2E354D"/>
<path d="M134.235 80.5718L127.894 77.4137L121.523 80.5718V86.9145L127.894 90.1253L134.235 86.9145V80.5718Z" fill="#2E354D"/>
<path d="M119.934 80.5718L113.593 77.4137L107.222 80.5718V86.9145L113.593 90.1253L119.934 86.9145V80.5718Z" fill="#2E354D"/>
<path d="M105.633 80.5718L99.2928 77.4137L92.9218 80.5718V86.9145L99.2928 90.1253L105.633 86.9145V80.5718Z" fill="#2E354D"/>
<path d="M91.3329 80.5718L84.9924 77.4137L78.6213 80.5718V86.9145L84.9924 90.1253L91.3329 86.9145V80.5718Z" fill="#2E354D"/>
<path d="M77.0324 80.5718L70.6919 77.4137L64.3208 80.5718V86.9145L70.6919 90.1253L77.0324 86.9145V80.5718Z" fill="#2E354D"/>
<path d="M62.7319 80.5718L56.3913 77.4137L50.0203 80.5718V86.9145L56.3913 90.1253L62.7319 86.9145V80.5718Z" fill="#2E354D"/>
<path d="M34.1307 80.5718L27.7901 77.4137L21.4191 80.5718V86.9145L27.7901 90.1253L34.1307 86.9145V80.5718Z" fill="#2E354D"/>
<path d="M19.83 80.5718L13.4895 77.4137L7.11841 80.5718V86.9145L13.4895 90.1253L19.83 86.9145V80.5718Z" fill="#2E354D"/>
<path d="M27.0121 69.5127L20.6716 66.3546L14.3005 69.5127V75.8554L20.6716 79.0662L27.0121 75.8554V69.5127Z" fill="#2E354D"/>
<path d="M41.3127 69.5127L34.9722 66.3546L28.6011 69.5127V75.8554L34.9722 79.0662L41.3127 75.8554V69.5127Z" fill="#2E354D"/>
<path d="M69.9138 69.5127L63.5732 66.3546L57.2021 69.5127V75.8554L63.5732 79.0662L69.9138 75.8554V69.5127Z" fill="#2E354D"/>
<path d="M84.2145 69.5127L77.874 66.3546L71.5029 69.5127V75.8554L77.874 79.0662L84.2145 75.8554V69.5127Z" fill="#2E354D"/>
<path d="M98.5148 69.5127L92.1743 66.3546L85.8032 69.5127V75.8554L92.1743 79.0662L98.5148 75.8554V69.5127Z" fill="#2E354D"/>
<path d="M112.815 69.5127L106.475 66.3546L100.104 69.5127V75.8554L106.475 79.0662L112.815 75.8554V69.5127Z" fill="#2E354D"/>
<path d="M127.116 69.5127L120.775 66.3546L114.404 69.5127V75.8554L120.775 79.0662L127.116 75.8554V69.5127Z" fill="#2E354D"/>
<path d="M141.417 69.5127L135.076 66.3546L128.705 69.5127V75.8554L135.076 79.0662L141.417 75.8554V69.5127Z" fill="#2E354D"/>
<path d="M155.717 69.5127L149.377 66.3546L143.006 69.5127V75.8554L149.377 79.0662L155.717 75.8554V69.5127Z" fill="#2E354D"/>
<path d="M77.0324 191.353L70.6919 188.195L64.3208 191.353V197.696L70.6919 200.907L77.0324 197.696V191.353Z" fill="#384367"/>
<path d="M98.4514 268.767L92.1108 265.609L85.7397 268.767V275.11L92.1108 278.321L98.4514 275.11V268.767Z" fill="#384367"/>
<path d="M112.752 224.531L106.411 221.373L100.04 224.531V230.873L106.411 234.084L112.752 230.873V224.531Z" fill="#384367"/>
<path d="M77.0324 213.472L70.6919 210.314L64.3208 213.472V219.814L70.6919 223.025L77.0324 219.814V213.472Z" fill="#384367"/>
<path d="M91.3329 213.472L84.9924 210.314L78.6213 213.472V219.814L84.9924 223.025L91.3329 219.814V213.472Z" fill="#384367"/>
<path d="M105.633 213.472L99.2928 210.314L92.9218 213.472V219.814L99.2928 223.025L105.633 219.814V213.472Z" fill="#384367"/>
<path d="M98.5148 202.413L92.1743 199.254L85.8032 202.413V208.755L92.1743 211.966L98.5148 208.755V202.413Z" fill="#384367"/>
<path d="M84.2145 202.413L77.874 199.254L71.5029 202.413V208.755L77.874 211.966L84.2145 208.755V202.413Z" fill="#384367"/>
<path d="M248.639 346.181L242.298 343.023L235.927 346.181V352.523L242.298 355.734L248.639 352.523V346.181Z" fill="#384367"/>
<path d="M262.94 346.181L256.599 343.023L250.228 346.181V352.523L256.599 355.734L262.94 352.523V346.181Z" fill="#384367"/>
<path d="M255.821 357.24L249.481 354.082L243.109 357.24V363.583L249.481 366.793L255.821 363.583V357.24Z" fill="#384367"/>
<path d="M205.801 368.299L199.46 365.141L193.089 368.299V374.642L199.46 377.852L205.801 374.642V368.299Z" fill="#384367"/>
<path d="M220.101 412.535L213.761 409.377L207.39 412.535V418.878L213.761 422.089L220.101 418.878V412.535Z" fill="#384367"/>
<path d="M234.402 412.535L228.062 409.377L221.69 412.535V418.878L228.062 422.089L234.402 418.878V412.535Z" fill="#384367"/>
<path d="M320.206 412.535L313.865 409.377L307.494 412.535V418.878L313.865 422.089L320.206 418.878V412.535Z" fill="#384367"/>
<path d="M327.387 423.467L321.047 420.309L314.676 423.467V429.81L321.047 433.021L327.387 429.81V423.467Z" fill="#384367"/>
<path d="M241.584 423.467L235.244 420.309L228.873 423.467V429.81L235.244 433.021L241.584 429.81V423.467Z" fill="#384367"/>
<path d="M320.206 434.336L313.865 431.178L307.494 434.336V440.678L313.865 443.889L320.206 440.678V434.336Z" fill="#384367"/>
<path d="M277.304 477.937L270.963 474.778L264.592 477.937V484.279L270.963 487.49L277.304 484.279V477.937Z" fill="#384367"/>
<path d="M241.584 488.996L235.244 485.838L228.873 488.996V495.338L235.244 498.549L241.584 495.338V488.996Z" fill="#384367"/>
<path d="M284.486 488.996L278.145 485.838L271.774 488.996V495.338L278.145 498.549L284.486 495.338V488.996Z" fill="#384367"/>
<path d="M248.702 500.055L242.362 496.897L235.991 500.055V506.397L242.362 509.608L248.702 506.397V500.055Z" fill="#384367"/>
<path d="M277.304 500.055L270.963 496.897L264.592 500.055V506.397L270.963 509.608L277.304 506.397V500.055Z" fill="#384367"/>
<path d="M291.604 500.055L285.264 496.897L278.893 500.055V506.397L285.264 509.608L291.604 506.397V500.055Z" fill="#384367"/>
<path d="M305.905 500.055L299.564 496.897L293.193 500.055V506.397L299.564 509.608L305.905 506.397V500.055Z" fill="#384367"/>
<path d="M255.884 511.114L249.544 507.956L243.173 511.114V517.456L249.544 520.667L255.884 517.456V511.114Z" fill="#384367"/>
<path d="M284.486 511.114L278.145 507.956L271.774 511.114V517.456L278.145 520.667L284.486 517.456V511.114Z" fill="#384367"/>
<path d="M248.702 522.173L242.362 519.015L235.991 522.173V528.516L242.362 531.726L248.702 528.516V522.173Z" fill="#384367"/>
<path d="M277.304 522.173L270.963 519.015L264.592 522.173V528.516L270.963 531.726L277.304 528.516V522.173Z" fill="#384367"/>
<path d="M255.884 533.232L249.544 530.074L243.173 533.232V539.575L249.544 542.786L255.884 539.575V533.232Z" fill="#384367"/>
<path d="M134.235 146.926L127.894 143.768L121.523 146.926V153.269L127.894 156.48L134.235 153.269V146.926Z" fill="#384367"/>
<path d="M177.136 169.235L170.796 166.077L164.425 169.235V175.578L170.796 178.789L177.136 175.578V169.235Z" fill="#384367"/>
<path d="M162.836 146.926L156.495 143.768L150.124 146.926V153.269L156.495 156.48L162.836 153.269V146.926Z" fill="#384367"/>
<path d="M155.717 135.867L149.377 132.709L143.006 135.867V142.21L149.377 145.421L155.717 142.21V135.867Z" fill="#384367"/>
<path d="M170.018 91.6309L163.677 88.4728L157.306 91.6309V97.9736L163.677 101.184L170.018 97.9736V91.6309Z" fill="#384367"/>
<path d="M69.9138 91.6309L63.5732 88.4728L57.2021 91.6309V97.9736L63.5732 101.184L69.9138 97.9736V91.6309Z" fill="#384367"/>
<path d="M205.737 80.5718L199.397 77.4137L193.026 80.5718V86.9145L199.397 90.1253L205.737 86.9145V80.5718Z" fill="#384367"/>
<path d="M162.836 80.5718L156.495 77.4137L150.124 80.5718V86.9145L156.495 90.1253L162.836 86.9145V80.5718Z" fill="#384367"/>
<path d="M48.4312 80.5718L42.0907 77.4137L35.7196 80.5718V86.9145L42.0907 90.1253L48.4312 86.9145V80.5718Z" fill="#384367"/>
<path d="M55.6132 69.5127L49.2727 66.3546L42.9016 69.5127V75.8554L49.2727 79.0662L55.6132 75.8554V69.5127Z" fill="#384367"/>
<path d="M170.018 69.5127L163.677 66.3546L157.306 69.5127V75.8554L163.677 79.0662L170.018 75.8554V69.5127Z" fill="#384367"/>
<path d="M184.318 69.5127L177.978 66.3546L171.607 69.5127V75.8554L177.978 79.0662L184.318 75.8554V69.5127Z" fill="#2E354D"/>
<path d="M198.619 69.5127L192.278 66.3546L185.907 69.5127V75.8554L192.278 79.0662L198.619 75.8554V69.5127Z" fill="#2E354D"/>
<path d="M212.919 69.5127L206.579 66.3546L200.208 69.5127V75.8554L206.579 79.0662L212.919 75.8554V69.5127Z" fill="#2E354D"/>
<path d="M227.22 69.5127L220.879 66.3546L214.508 69.5127V75.8554L220.879 79.0662L227.22 75.8554V69.5127Z" fill="#2E354D"/>
<path d="M241.52 69.5127L235.18 66.3546L228.809 69.5127V75.8554L235.18 79.0662L241.52 75.8554V69.5127Z" fill="#2E354D"/>
<path d="M255.821 69.5127L249.481 66.3546L243.109 69.5127V75.8554L249.481 79.0662L255.821 75.8554V69.5127Z" fill="#2E354D"/>
<path d="M270.122 69.5127L263.781 66.3546L257.41 69.5127V75.8554L263.781 79.0662L270.122 75.8554V69.5127Z" fill="#2E354D"/>
<path d="M284.422 69.5127L278.082 66.3546L271.71 69.5127V75.8554L278.082 79.0662L284.422 75.8554V69.5127Z" fill="#2E354D"/>
<path d="M298.723 69.5127L292.382 66.3546L286.011 69.5127V75.8554L292.382 79.0662L298.723 75.8554V69.5127Z" fill="#2E354D"/>
<path d="M277.24 58.4536L270.9 55.2955L264.529 58.4536V64.7963L270.9 68.0071L277.24 64.7963V58.4536Z" fill="#2E354D"/>
<path d="M262.94 58.4536L256.599 55.2955L250.228 58.4536V64.7963L256.599 68.0071L262.94 64.7963V58.4536Z" fill="#2E354D"/>
<path d="M248.639 58.4536L242.298 55.2955L235.927 58.4536V64.7963L242.298 68.0071L248.639 64.7963V58.4536Z" fill="#2E354D"/>
<path d="M234.338 58.4536L227.998 55.2955L221.627 58.4536V64.7963L227.998 68.0071L234.338 64.7963V58.4536Z" fill="#2E354D"/>
<path d="M220.038 58.4536L213.697 55.2955L207.326 58.4536V64.7963L213.697 68.0071L220.038 64.7963V58.4536Z" fill="#2E354D"/>
<path d="M205.737 58.4536L199.397 55.2955L193.026 58.4536V64.7963L199.397 68.0071L205.737 64.7963V58.4536Z" fill="#2E354D"/>
<path d="M191.437 58.4536L185.096 55.2955L178.725 58.4536V64.7963L185.096 68.0071L191.437 64.7963V58.4536Z" fill="#2E354D"/>
<path d="M177.136 58.4536L170.796 55.2955L164.425 58.4536V64.7963L170.796 68.0071L177.136 64.7963V58.4536Z" fill="#2E354D"/>
<path d="M162.836 58.4536L156.495 55.2955L150.124 58.4536V64.7963L156.495 68.0071L162.836 64.7963V58.4536Z" fill="#2E354D"/>
<path d="M105.633 58.4536L99.2928 55.2955L92.9218 58.4536V64.7963L99.2928 68.0071L105.633 64.7963V58.4536Z" fill="#2E354D"/>
<path d="M91.3329 58.4536L84.9924 55.2955L78.6213 58.4536V64.7963L84.9924 68.0071L91.3329 64.7963V58.4536Z" fill="#2E354D"/>
<path d="M77.0324 58.4536L70.6919 55.2955L64.3208 58.4536V64.7963L70.6919 68.0071L77.0324 64.7963V58.4536Z" fill="#2E354D"/>
<path d="M62.7319 58.4536L56.3913 55.2955L50.0203 58.4536V64.7963L56.3913 68.0071L62.7319 64.7963V58.4536Z" fill="#2E354D"/>
<path d="M48.4312 58.4536L42.0907 55.2955L35.7196 58.4536V64.7963L42.0907 68.0071L48.4312 64.7963V58.4536Z" fill="#2E354D"/>
<path d="M34.1307 58.4536L27.7901 55.2955L21.4191 58.4536V64.7963L27.7901 68.0071L34.1307 64.7963V58.4536Z" fill="#2E354D"/>
<path d="M55.6132 47.3946L49.2727 44.2364L42.9016 47.3946V53.7372L49.2727 56.948L55.6132 53.7372V47.3946Z" fill="#2E354D"/>
<path d="M69.9138 47.3946L63.5732 44.2364L57.2021 47.3946V53.7372L63.5732 56.948L69.9138 53.7372V47.3946Z" fill="#2E354D"/>
<path d="M84.2145 47.3946L77.874 44.2364L71.5029 47.3946V53.7372L77.874 56.948L84.2145 53.7372V47.3946Z" fill="#2E354D"/>
<path d="M170.018 47.3946L163.677 44.2364L157.306 47.3946V53.7372L163.677 56.948L170.018 53.7372V47.3946Z" fill="#2E354D"/>
<path d="M184.318 47.3946L177.978 44.2364L171.607 47.3946V53.7372L177.978 56.948L184.318 53.7372V47.3946Z" fill="#2E354D"/>
<path d="M198.619 47.3946L192.278 44.2364L185.907 47.3946V53.7372L192.278 56.948L198.619 53.7372V47.3946Z" fill="#2E354D"/>
<path d="M212.919 47.3946L206.579 44.2364L200.208 47.3946V53.7372L206.579 56.948L212.919 53.7372V47.3946Z" fill="#2E354D"/>
<path d="M255.821 47.3946L249.481 44.2364L243.109 47.3946V53.7372L249.481 56.948L255.821 53.7372V47.3946Z" fill="#2E354D"/>
<path d="M270.122 47.3946L263.781 44.2364L257.41 47.3946V53.7372L263.781 56.948L270.122 53.7372V47.3946Z" fill="#2E354D"/>
<path d="M241.52 47.3946L235.18 44.2364L228.809 47.3946V53.7372L235.18 56.948L241.52 53.7372V47.3946Z" fill="#2E354D"/>
<path d="M155.717 47.3946L149.377 44.2364L143.006 47.3946V53.7372L149.377 56.948L155.717 53.7372V47.3946Z" fill="#2E354D"/>
<path d="M148.599 58.4536L142.258 55.2955L135.887 58.4536V64.7963L142.258 68.0071L148.599 64.7963V58.4536Z" fill="#2E354D"/>
<path d="M177.2 36.3354L170.859 33.1773L164.488 36.3354V42.6781L170.859 45.8889L177.2 42.6781V36.3354Z" fill="#2E354D"/>
<path d="M234.338 36.3354L227.998 33.1773L221.627 36.3354V42.6781L227.998 45.8889L234.338 42.6781V36.3354Z" fill="#2E354D"/>
<path d="M248.639 36.3354L242.298 33.1773L235.927 36.3354V42.6781L242.298 45.8889L248.639 42.6781V36.3354Z" fill="#2E354D"/>
<path d="M262.94 36.3354L256.599 33.1773L250.228 36.3354V42.6781L256.599 45.8889L262.94 42.6781V36.3354Z" fill="#2E354D"/>
<path d="M277.24 36.3354L270.9 33.1773L264.529 36.3354V42.6781L270.9 45.8889L277.24 42.6781V36.3354Z" fill="#2E354D"/>
<path d="M291.541 36.3354L285.2 33.1773L278.829 36.3354V42.6781L285.2 45.8889L291.541 42.6781V36.3354Z" fill="#2E354D"/>
<path d="M305.714 36.3354L299.374 33.1773L293.002 36.3354V42.6781L299.374 45.8889L305.714 42.6781V36.3354Z" fill="#2E354D"/>
<path d="M312.896 47.3946L306.556 44.2364L300.185 47.3946V53.7372L306.556 56.948L312.896 53.7372V47.3946Z" fill="#2E354D"/>
<path d="M320.015 36.3354L313.674 33.1773L307.303 36.3354V42.6781L313.674 45.8889L320.015 42.6781V36.3354Z" fill="#2E354D"/>
<path d="M327.197 47.3946L320.856 44.2364L314.485 47.3946V53.7372L320.856 56.948L327.197 53.7372V47.3946Z" fill="#2E354D"/>
<path d="M327.197 69.5127L320.856 66.3546L314.485 69.5127V75.8554L320.856 79.0662L327.197 75.8554V69.5127Z" fill="#2E354D"/>
<path d="M334.315 58.4536L327.975 55.2955L321.604 58.4536V64.7963L327.975 68.0071L334.315 64.7963V58.4536Z" fill="#2E354D"/>
<path d="M255.694 25.2764L249.354 22.1182L242.982 25.2764V31.619L249.354 34.8298L255.694 31.619V25.2764Z" fill="#2E354D"/>
<path d="M269.994 25.2764L263.654 22.1182L257.283 25.2764V31.619L263.654 34.8298L269.994 31.619V25.2764Z" fill="#2E354D"/>
<path d="M284.295 25.2764L277.955 22.1182L271.583 25.2764V31.619L277.955 34.8298L284.295 31.619V25.2764Z" fill="#2E354D"/>
<path d="M298.596 25.2764L292.255 22.1182L285.884 25.2764V31.619L292.255 34.8298L298.596 31.619V25.2764Z" fill="#2E354D"/>
<path d="M312.896 25.2764L306.556 22.1182L300.185 25.2764V31.619L306.556 34.8298L312.896 31.619V25.2764Z" fill="#2E354D"/>
<path d="M327.197 25.2764L320.856 22.1182L314.485 25.2764V31.619L320.856 34.8298L327.197 31.619V25.2764Z" fill="#2E354D"/>
<path d="M248.512 14.2173L242.171 11.0591L235.8 14.2173V20.5599L242.171 23.7707L248.512 20.5599V14.2173Z" fill="#2E354D"/>
<path d="M262.812 14.2173L256.472 11.0591L250.101 14.2173V20.5599L256.472 23.7707L262.812 20.5599V14.2173Z" fill="#2E354D"/>
<path d="M277.113 14.2173L270.772 11.0591L264.401 14.2173V20.5599L270.772 23.7707L277.113 20.5599V14.2173Z" fill="#2E354D"/>
<path d="M291.414 14.2173L285.073 11.0591L278.702 14.2173V20.5599L285.073 23.7707L291.414 20.5599V14.2173Z" fill="#2E354D"/>
<path d="M305.714 14.2173L299.374 11.0591L293.002 14.2173V20.5599L299.374 23.7707L305.714 20.5599V14.2173Z" fill="#2E354D"/>
<path d="M320.015 14.2173L313.674 11.0591L307.303 14.2173V20.5599L313.674 23.7707L320.015 20.5599V14.2173Z" fill="#2E354D"/>
<path d="M284.422 3.15816L278.082 0L271.71 3.15816V9.50081L278.082 12.7116L284.422 9.50081V3.15816Z" fill="#2E354D"/>
<path d="M298.723 3.15816L292.382 0L286.011 3.15816V9.50081L292.382 12.7116L298.723 9.50081V3.15816Z" fill="#2E354D"/>
<path d="M313.023 3.15816L306.683 0L300.312 3.15816V9.50081L306.683 12.7116L313.023 9.50081V3.15816Z" fill="#2E354D"/>
<path d="M334.315 80.5718L327.975 77.4137L321.604 80.5718V86.9145L327.975 90.1253L334.315 86.9145V80.5718Z" fill="#2E354D"/>
<path d="M341.497 91.6309L335.157 88.4728L328.786 91.6309V97.9736L335.157 101.184L341.497 97.9736V91.6309Z" fill="#2E354D"/>
<path d="M348.616 102.69L342.275 99.5319L335.904 102.69V109.033L342.275 112.243L348.616 109.033V102.69Z" fill="#2E354D"/>
<path d="M341.497 113.749L335.157 110.591L328.786 113.749V120.092L335.157 123.303L341.497 120.092V113.749Z" fill="#2E354D"/>
<path d="M348.616 124.808L342.275 121.65L335.904 124.808V131.151L342.275 134.362L348.616 131.151V124.808Z" fill="#2E354D"/>
<path d="M362.916 124.808L356.576 121.65L350.205 124.808V131.151L356.576 134.362L362.916 131.151V124.808Z" fill="#2E354D"/>
<path d="M355.798 113.749L349.458 110.591L343.086 113.749V120.092L349.458 123.303L355.798 120.092V113.749Z" fill="#2E354D"/>
<path d="M370.098 113.749L363.758 110.591L357.387 113.749V120.092L363.758 123.303L370.098 120.092V113.749Z" fill="#2E354D"/>
<path d="M334.315 14.2173L327.975 11.0591L321.604 14.2173V20.5599L327.975 23.7707L334.315 20.5599V14.2173Z" fill="#2E354D"/>
<path d="M362.916 102.69L356.576 99.5319L350.205 102.69V109.033L356.576 112.243L362.916 109.033V102.69Z" fill="#2E354D"/>
<path d="M377.217 102.69L370.876 99.5319L364.505 102.69V109.033L370.876 112.243L377.217 109.033V102.69Z" fill="#2E354D"/>
<path d="M355.798 91.6309L349.458 88.4728L343.086 91.6309V97.9736L349.458 101.184L355.798 97.9736V91.6309Z" fill="#2E354D"/>
<path d="M370.098 91.6309L363.758 88.4728L357.387 91.6309V97.9736L363.758 101.184L370.098 97.9736V91.6309Z" fill="#2E354D"/>
<path d="M384.399 91.6309L378.059 88.4728L371.688 91.6309V97.9736L378.059 101.184L384.399 97.9736V91.6309Z" fill="#2E354D"/>
<path d="M398.699 91.6309L392.359 88.4728L385.988 91.6309V97.9736L392.359 101.184L398.699 97.9736V91.6309Z" fill="#2E354D"/>
<path d="M348.616 80.5718L342.275 77.4137L335.904 80.5718V86.9145L342.275 90.1253L348.616 86.9145V80.5718Z" fill="#2E354D"/>
<path d="M362.916 80.5718L356.576 77.4137L350.205 80.5718V86.9145L356.576 90.1253L362.916 86.9145V80.5718Z" fill="#2E354D"/>
<path d="M377.217 80.5718L370.876 77.4137L364.505 80.5718V86.9145L370.876 90.1253L377.217 86.9145V80.5718Z" fill="#2E354D"/>
<path d="M391.518 80.5718L385.177 77.4137L378.806 80.5718V86.9145L385.177 90.1253L391.518 86.9145V80.5718Z" fill="#2E354D"/>
<path d="M405.818 80.5718L399.478 77.4137L393.106 80.5718V86.9145L399.478 90.1253L405.818 86.9145V80.5718Z" fill="#2E354D"/>
<path d="M341.497 69.5127L335.157 66.3546L328.786 69.5127V75.8554L335.157 79.0662L341.497 75.8554V69.5127Z" fill="#2E354D"/>
<path d="M355.798 69.5127L349.458 66.3546L343.086 69.5127V75.8554L349.458 79.0662L355.798 75.8554V69.5127Z" fill="#2E354D"/>
<path d="M370.098 69.5127L363.758 66.3546L357.387 69.5127V75.8554L363.758 79.0662L370.098 75.8554V69.5127Z" fill="#2E354D"/>
<path d="M384.399 69.5127L378.059 66.3546L371.688 69.5127V75.8554L378.059 79.0662L384.399 75.8554V69.5127Z" fill="#2E354D"/>
<path d="M398.699 69.5127L392.359 66.3546L385.988 69.5127V75.8554L392.359 79.0662L398.699 75.8554V69.5127Z" fill="#2E354D"/>
<path d="M413 69.5127L406.66 66.3546L400.289 69.5127V75.8554L406.66 79.0662L413 75.8554V69.5127Z" fill="#2E354D"/>
<path d="M334.315 102.69L327.975 99.5319L321.604 102.69V109.033L327.975 112.243L334.315 109.033V102.69Z" fill="#2E354D"/>
<path d="M348.616 58.4536L342.275 55.2955L335.904 58.4536V64.7963L342.275 68.0071L348.616 64.7963V58.4536Z" fill="#2E354D"/>
<path d="M362.916 58.4536L356.576 55.2955L350.205 58.4536V64.7963L356.576 68.0071L362.916 64.7963V58.4536Z" fill="#2E354D"/>
<path d="M377.217 58.4536L370.876 55.2955L364.505 58.4536V64.7963L370.876 68.0071L377.217 64.7963V58.4536Z" fill="#2E354D"/>
<path d="M391.518 58.4536L385.177 55.2955L378.806 58.4536V64.7963L385.177 68.0071L391.518 64.7963V58.4536Z" fill="#2E354D"/>
<path d="M405.818 58.4536L399.478 55.2955L393.106 58.4536V64.7963L399.478 68.0071L405.818 64.7963V58.4536Z" fill="#2E354D"/>
<path d="M341.497 47.3946L335.157 44.2364L328.786 47.3946V53.7372L335.157 56.948L341.497 53.7372V47.3946Z" fill="#2E354D"/>
<path d="M355.798 47.3946L349.458 44.2364L343.086 47.3946V53.7372L349.458 56.948L355.798 53.7372V47.3946Z" fill="#2E354D"/>
<path d="M370.098 47.3946L363.758 44.2364L357.387 47.3946V53.7372L363.758 56.948L370.098 53.7372V47.3946Z" fill="#2E354D"/>
<path d="M384.399 47.3946L378.059 44.2364L371.688 47.3946V53.7372L378.059 56.948L384.399 53.7372V47.3946Z" fill="#2E354D"/>
<path d="M398.699 47.3946L392.359 44.2364L385.988 47.3946V53.7372L392.359 56.948L398.699 53.7372V47.3946Z" fill="#2E354D"/>
<path d="M413 47.3946L406.66 44.2364L400.289 47.3946V53.7372L406.66 56.948L413 53.7372V47.3946Z" fill="#2E354D"/>
<path d="M405.818 36.3354L399.478 33.1773L393.106 36.3354V42.6781L399.478 45.8889L405.818 42.6781V36.3354Z" fill="#2E354D"/>
<path d="M391.518 36.3354L385.177 33.1773L378.806 36.3354V42.6781L385.177 45.8889L391.518 42.6781V36.3354Z" fill="#2E354D"/>
<path d="M377.217 36.3354L370.876 33.1773L364.505 36.3354V42.6781L370.876 45.8889L377.217 42.6781V36.3354Z" fill="#2E354D"/>
<path d="M362.916 36.3354L356.576 33.1773L350.205 36.3354V42.6781L356.576 45.8889L362.916 42.6781V36.3354Z" fill="#2E354D"/>
<path d="M348.616 36.3354L342.275 33.1773L335.904 36.3354V42.6781L342.275 45.8889L348.616 42.6781V36.3354Z" fill="#2E354D"/>
<path d="M334.315 36.3354L327.975 33.1773L321.604 36.3354V42.6781L327.975 45.8889L334.315 42.6781V36.3354Z" fill="#2E354D"/>
<path d="M398.699 25.2764L392.359 22.1182L385.988 25.2764V31.619L392.359 34.8298L398.699 31.619V25.2764Z" fill="#2E354D"/>
<path d="M341.497 25.2764L335.157 22.1182L328.786 25.2764V31.619L335.157 34.8298L341.497 31.619V25.2764Z" fill="#2E354D"/>
<path d="M355.798 25.2764L349.458 22.1182L343.086 25.2764V31.619L349.458 34.8298L355.798 31.619V25.2764Z" fill="#2E354D"/>
<path d="M370.098 25.2764L363.758 22.1182L357.387 25.2764V31.619L363.758 34.8298L370.098 31.619V25.2764Z" fill="#2E354D"/>
<path d="M384.399 25.2764L378.059 22.1182L371.688 25.2764V31.619L378.059 34.8298L384.399 31.619V25.2764Z" fill="#2E354D"/>
<path d="M348.616 14.2173L342.275 11.0591L335.904 14.2173V20.5599L342.275 23.7707L348.616 20.5599V14.2173Z" fill="#2E354D"/>
<path d="M362.916 14.2173L356.576 11.0591L350.205 14.2173V20.5599L356.576 23.7707L362.916 20.5599V14.2173Z" fill="#2E354D"/>
<path d="M377.217 14.2173L370.876 11.0591L364.505 14.2173V20.5599L370.876 23.7707L377.217 20.5599V14.2173Z" fill="#2E354D"/>
<path d="M370.098 3.15816L363.758 0L357.387 3.15816V9.50081L363.758 12.7116L370.098 9.50081V3.15816Z" fill="#2E354D"/>
<path d="M391.518 14.2173L385.177 11.0591L378.806 14.2173V20.5599L385.177 23.7707L391.518 20.5599V14.2173Z" fill="#2E354D"/>
<path d="M413 25.2764L406.66 22.1182L400.289 25.2764V31.619L406.66 34.8298L413 31.619V25.2764Z" fill="#2E354D"/>
<path d="M384.399 3.15816L378.059 0L371.688 3.15816V9.50081L378.059 12.7116L384.399 9.50081V3.15816Z" fill="#2E354D"/>
<path d="M355.798 3.15816L349.458 0L343.086 3.15816V9.50081L349.458 12.7116L355.798 9.50081V3.15816Z" fill="#2E354D"/>
</svg>
